G04 EAGLE Gerber RS-274X export*
G75*
%MOMM*%
%FSLAX34Y34*%
%LPD*%
%INBottom Copper*%
%IPPOS*%
%AMOC8*
5,1,8,0,0,1.08239X$1,22.5*%
G01*
%ADD10C,1.158000*%
%ADD11C,1.200000*%
%ADD12R,1.270000X1.270000*%
%ADD13C,0.711200*%
%ADD14C,0.254000*%

G36*
X7006Y2797D02*
X7006Y2797D01*
X7058Y2797D01*
X8263Y2864D01*
X8276Y2861D01*
X8366Y2827D01*
X8430Y2821D01*
X8492Y2805D01*
X8652Y2795D01*
X216697Y2795D01*
X216759Y2803D01*
X216821Y2801D01*
X216980Y2827D01*
X217561Y2960D01*
X217569Y2963D01*
X217579Y2964D01*
X217719Y3018D01*
X217859Y3069D01*
X217867Y3074D01*
X217876Y3077D01*
X218013Y3162D01*
X219106Y3939D01*
X219174Y4001D01*
X219248Y4056D01*
X219290Y4108D01*
X219340Y4154D01*
X219390Y4231D01*
X219448Y4303D01*
X219504Y4406D01*
X219513Y4421D01*
X219516Y4429D01*
X219525Y4445D01*
X220083Y5664D01*
X220086Y5673D01*
X220091Y5681D01*
X220133Y5824D01*
X220178Y5967D01*
X220179Y5977D01*
X220181Y5986D01*
X220197Y6146D01*
X220204Y6334D01*
X220203Y6348D01*
X220205Y6381D01*
X220205Y7059D01*
X220203Y7079D01*
X220200Y7178D01*
X220101Y8219D01*
X220116Y8245D01*
X220146Y8361D01*
X220183Y8475D01*
X220185Y8515D01*
X220195Y8553D01*
X220205Y8714D01*
X220205Y211317D01*
X220193Y211415D01*
X220190Y211514D01*
X220173Y211572D01*
X220165Y211632D01*
X220129Y211724D01*
X220101Y211819D01*
X220071Y211872D01*
X220048Y211928D01*
X219990Y212008D01*
X219940Y212093D01*
X219874Y212169D01*
X219862Y212185D01*
X219852Y212193D01*
X219834Y212214D01*
X200205Y231842D01*
X200205Y267158D01*
X219834Y286786D01*
X219894Y286864D01*
X219962Y286936D01*
X219991Y286989D01*
X220028Y287037D01*
X220068Y287128D01*
X220116Y287215D01*
X220131Y287273D01*
X220155Y287329D01*
X220170Y287427D01*
X220195Y287523D01*
X220201Y287623D01*
X220205Y287643D01*
X220203Y287655D01*
X220205Y287683D01*
X220205Y337170D01*
X220198Y337226D01*
X220200Y337283D01*
X220176Y337443D01*
X220107Y337752D01*
X220104Y337761D01*
X220103Y337770D01*
X220051Y337911D01*
X220001Y338052D01*
X219995Y338060D01*
X219992Y338068D01*
X219909Y338206D01*
X219470Y338835D01*
X219408Y338903D01*
X219353Y338978D01*
X219302Y339021D01*
X219256Y339071D01*
X219179Y339122D01*
X219108Y339181D01*
X219005Y339237D01*
X218991Y339246D01*
X218983Y339249D01*
X218967Y339258D01*
X218273Y339583D01*
X218264Y339586D01*
X218256Y339591D01*
X218113Y339635D01*
X217970Y339681D01*
X217961Y339681D01*
X217952Y339684D01*
X217792Y339701D01*
X217736Y339704D01*
X217720Y339703D01*
X217679Y339705D01*
X217174Y339705D01*
X217153Y339703D01*
X217066Y339701D01*
X215998Y339609D01*
X215986Y339616D01*
X215875Y339644D01*
X215766Y339681D01*
X215721Y339684D01*
X215678Y339695D01*
X215517Y339705D01*
X8578Y339705D01*
X8535Y339700D01*
X8491Y339702D01*
X8377Y339680D01*
X8262Y339665D01*
X8222Y339649D01*
X8179Y339641D01*
X8105Y339606D01*
X7033Y339700D01*
X7011Y339700D01*
X6921Y339705D01*
X6379Y339705D01*
X6363Y339703D01*
X6324Y339704D01*
X6040Y339692D01*
X6031Y339690D01*
X6022Y339691D01*
X5874Y339664D01*
X5727Y339639D01*
X5718Y339635D01*
X5709Y339633D01*
X5559Y339574D01*
X4392Y339031D01*
X4344Y339001D01*
X4314Y338989D01*
X4284Y338968D01*
X4231Y338942D01*
X4180Y338898D01*
X4123Y338862D01*
X4088Y338825D01*
X4057Y338802D01*
X4029Y338769D01*
X3989Y338735D01*
X3916Y338643D01*
X3904Y338631D01*
X3900Y338624D01*
X3889Y338609D01*
X3150Y337556D01*
X3146Y337547D01*
X3139Y337540D01*
X3072Y337407D01*
X3001Y337274D01*
X2999Y337265D01*
X2995Y337257D01*
X2950Y337102D01*
X2825Y336539D01*
X2820Y336481D01*
X2805Y336424D01*
X2795Y336264D01*
X2795Y291683D01*
X2807Y291585D01*
X2810Y291486D01*
X2827Y291428D01*
X2835Y291368D01*
X2871Y291276D01*
X2899Y291181D01*
X2929Y291128D01*
X2952Y291072D01*
X3010Y290992D01*
X3060Y290907D01*
X3126Y290831D01*
X3138Y290815D01*
X3148Y290807D01*
X3166Y290786D01*
X4556Y289397D01*
X4678Y289302D01*
X4796Y289208D01*
X4802Y289206D01*
X4807Y289202D01*
X4949Y289140D01*
X5086Y289079D01*
X5093Y289078D01*
X5099Y289075D01*
X5251Y289051D01*
X5400Y289026D01*
X5406Y289026D01*
X5413Y289025D01*
X5566Y289040D01*
X5717Y289052D01*
X5723Y289055D01*
X5730Y289055D01*
X5787Y289076D01*
X5774Y289013D01*
X5741Y288864D01*
X5741Y288857D01*
X5739Y288851D01*
X5746Y288700D01*
X5750Y288546D01*
X5752Y288540D01*
X5752Y288533D01*
X5796Y288386D01*
X5839Y288241D01*
X5842Y288235D01*
X5844Y288228D01*
X5922Y288099D01*
X6000Y287967D01*
X6006Y287960D01*
X6008Y287956D01*
X6016Y287949D01*
X6107Y287846D01*
X17795Y276158D01*
X17795Y238842D01*
X3166Y224214D01*
X3106Y224136D01*
X3038Y224064D01*
X3009Y224011D01*
X2972Y223963D01*
X2932Y223872D01*
X2884Y223785D01*
X2869Y223727D01*
X2845Y223671D01*
X2830Y223573D01*
X2805Y223477D01*
X2799Y223377D01*
X2795Y223357D01*
X2797Y223345D01*
X2795Y223317D01*
X2795Y6543D01*
X2799Y6505D01*
X2797Y6467D01*
X2817Y6307D01*
X2940Y5655D01*
X2943Y5647D01*
X2943Y5637D01*
X2991Y5496D01*
X3038Y5353D01*
X3043Y5345D01*
X3046Y5336D01*
X3125Y5196D01*
X3882Y4039D01*
X3942Y3969D01*
X3994Y3892D01*
X4044Y3848D01*
X4088Y3797D01*
X4163Y3743D01*
X4233Y3683D01*
X4334Y3623D01*
X4348Y3613D01*
X4356Y3610D01*
X4372Y3601D01*
X5606Y2977D01*
X5615Y2974D01*
X5622Y2969D01*
X5765Y2920D01*
X5905Y2871D01*
X5915Y2870D01*
X5923Y2867D01*
X6083Y2844D01*
X6695Y2798D01*
X6716Y2799D01*
X6790Y2795D01*
X6987Y2795D01*
X7006Y2797D01*
G37*
%LPC*%
G36*
X107441Y90485D02*
X107441Y90485D01*
X102259Y95667D01*
X102259Y109433D01*
X102242Y109570D01*
X102242Y109572D01*
X102237Y109649D01*
X102234Y109659D01*
X102229Y109709D01*
X102222Y109728D01*
X102219Y109748D01*
X102168Y109877D01*
X102121Y110008D01*
X102110Y110025D01*
X102102Y110044D01*
X102021Y110156D01*
X101943Y110272D01*
X101928Y110285D01*
X101916Y110301D01*
X101808Y110390D01*
X101704Y110482D01*
X101686Y110491D01*
X101671Y110504D01*
X101545Y110563D01*
X101421Y110627D01*
X101401Y110631D01*
X101383Y110640D01*
X101247Y110666D01*
X101111Y110696D01*
X101090Y110696D01*
X101071Y110699D01*
X100932Y110691D01*
X100793Y110687D01*
X100773Y110681D01*
X100753Y110680D01*
X100621Y110637D01*
X100487Y110598D01*
X100470Y110588D01*
X100451Y110582D01*
X100363Y110526D01*
X100358Y110524D01*
X100345Y110515D01*
X100333Y110507D01*
X100213Y110437D01*
X100192Y110418D01*
X100182Y110412D01*
X100168Y110397D01*
X100101Y110337D01*
X100100Y110337D01*
X100093Y110330D01*
X94612Y104850D01*
X94552Y104772D01*
X94484Y104700D01*
X94455Y104647D01*
X94418Y104599D01*
X94378Y104508D01*
X94330Y104421D01*
X94315Y104363D01*
X94291Y104307D01*
X94276Y104209D01*
X94251Y104113D01*
X94245Y104013D01*
X94241Y103993D01*
X94243Y103981D01*
X94241Y103953D01*
X94241Y102339D01*
X93467Y100472D01*
X92038Y99043D01*
X90171Y98269D01*
X88149Y98269D01*
X86282Y99043D01*
X84853Y100472D01*
X84079Y102339D01*
X84079Y104361D01*
X84853Y106228D01*
X86282Y107657D01*
X88149Y108431D01*
X89763Y108431D01*
X89861Y108443D01*
X89960Y108446D01*
X90018Y108463D01*
X90078Y108471D01*
X90170Y108507D01*
X90265Y108535D01*
X90318Y108565D01*
X90374Y108588D01*
X90454Y108646D01*
X90539Y108696D01*
X90615Y108762D01*
X90631Y108774D01*
X90639Y108784D01*
X90660Y108802D01*
X95324Y113466D01*
X95384Y113544D01*
X95452Y113616D01*
X95481Y113669D01*
X95519Y113717D01*
X95558Y113808D01*
X95606Y113895D01*
X95621Y113953D01*
X95645Y114009D01*
X95660Y114107D01*
X95685Y114203D01*
X95691Y114303D01*
X95695Y114323D01*
X95694Y114335D01*
X95695Y114363D01*
X95695Y149173D01*
X97548Y151026D01*
X97621Y151120D01*
X97700Y151209D01*
X97718Y151245D01*
X97743Y151277D01*
X97791Y151386D01*
X97845Y151492D01*
X97854Y151532D01*
X97870Y151569D01*
X97888Y151687D01*
X97914Y151803D01*
X97913Y151843D01*
X97919Y151883D01*
X97908Y152002D01*
X97905Y152120D01*
X97893Y152159D01*
X97890Y152200D01*
X97849Y152312D01*
X97816Y152426D01*
X97796Y152461D01*
X97782Y152499D01*
X97715Y152597D01*
X97655Y152700D01*
X97615Y152745D01*
X97603Y152762D01*
X97588Y152775D01*
X97548Y152821D01*
X96707Y153662D01*
X95934Y155529D01*
X95934Y157550D01*
X96707Y159418D01*
X98137Y160847D01*
X100204Y161703D01*
X100265Y161738D01*
X100330Y161764D01*
X100403Y161816D01*
X100481Y161861D01*
X100531Y161909D01*
X100587Y161950D01*
X100645Y162020D01*
X100709Y162082D01*
X100746Y162142D01*
X100790Y162195D01*
X100828Y162277D01*
X100875Y162353D01*
X100896Y162420D01*
X100926Y162483D01*
X100943Y162571D01*
X100969Y162657D01*
X100972Y162727D01*
X100985Y162796D01*
X100980Y162885D01*
X100984Y162975D01*
X100970Y163043D01*
X100966Y163113D01*
X100938Y163198D01*
X100920Y163286D01*
X100889Y163349D01*
X100868Y163415D01*
X100820Y163491D01*
X100780Y163572D01*
X100735Y163625D01*
X100697Y163684D01*
X100632Y163746D01*
X100574Y163814D01*
X100517Y163854D01*
X100466Y163902D01*
X100387Y163945D01*
X100314Y163997D01*
X100248Y164022D01*
X100187Y164056D01*
X100101Y164078D01*
X100016Y164110D01*
X99947Y164118D01*
X99879Y164135D01*
X99719Y164145D01*
X40509Y164145D01*
X40480Y164142D01*
X40451Y164144D01*
X40323Y164122D01*
X40194Y164105D01*
X40166Y164095D01*
X40137Y164090D01*
X40019Y164036D01*
X39898Y163988D01*
X39874Y163971D01*
X39847Y163959D01*
X39746Y163878D01*
X39641Y163802D01*
X39622Y163779D01*
X39599Y163760D01*
X39521Y163657D01*
X39438Y163557D01*
X39425Y163530D01*
X39408Y163506D01*
X39337Y163362D01*
X38707Y161842D01*
X37278Y160413D01*
X35314Y159599D01*
X35270Y159574D01*
X35224Y159558D01*
X35133Y159496D01*
X35037Y159442D01*
X35002Y159407D01*
X34960Y159379D01*
X34888Y159297D01*
X34809Y159220D01*
X34783Y159178D01*
X34750Y159141D01*
X34700Y159043D01*
X34643Y158949D01*
X34628Y158902D01*
X34605Y158857D01*
X34581Y158750D01*
X34549Y158645D01*
X34547Y158596D01*
X34536Y158547D01*
X34539Y158437D01*
X34534Y158328D01*
X34544Y158279D01*
X34545Y158229D01*
X34576Y158124D01*
X34598Y158016D01*
X34620Y157971D01*
X34634Y157924D01*
X34689Y157829D01*
X34738Y157730D01*
X34770Y157692D01*
X34795Y157650D01*
X34902Y157529D01*
X39228Y153203D01*
X39306Y153142D01*
X39378Y153074D01*
X39431Y153045D01*
X39479Y153008D01*
X39570Y152969D01*
X39657Y152921D01*
X39715Y152906D01*
X39771Y152882D01*
X39869Y152866D01*
X39965Y152841D01*
X40065Y152835D01*
X40085Y152832D01*
X40097Y152833D01*
X40125Y152831D01*
X43985Y152831D01*
X47212Y149604D01*
X47290Y149543D01*
X47363Y149476D01*
X47416Y149446D01*
X47463Y149409D01*
X47554Y149370D01*
X47641Y149322D01*
X47700Y149307D01*
X47755Y149283D01*
X47853Y149267D01*
X47949Y149243D01*
X48049Y149236D01*
X48069Y149233D01*
X48082Y149234D01*
X48110Y149232D01*
X49723Y149232D01*
X51590Y148459D01*
X53020Y147030D01*
X53793Y145162D01*
X53793Y143141D01*
X53020Y141274D01*
X51590Y139844D01*
X49723Y139071D01*
X47702Y139071D01*
X45834Y139844D01*
X44405Y141274D01*
X43632Y143141D01*
X43632Y144754D01*
X43619Y144853D01*
X43616Y144952D01*
X43599Y145010D01*
X43592Y145070D01*
X43555Y145162D01*
X43528Y145257D01*
X43497Y145309D01*
X43475Y145366D01*
X43417Y145446D01*
X43366Y145531D01*
X43300Y145606D01*
X43288Y145623D01*
X43278Y145631D01*
X43260Y145652D01*
X42042Y146870D01*
X41964Y146931D01*
X41891Y146998D01*
X41838Y147028D01*
X41791Y147065D01*
X41700Y147104D01*
X41613Y147152D01*
X41554Y147167D01*
X41499Y147191D01*
X41401Y147207D01*
X41305Y147231D01*
X41205Y147238D01*
X41185Y147241D01*
X41172Y147240D01*
X41144Y147242D01*
X37284Y147242D01*
X25053Y159473D01*
X25053Y169630D01*
X27062Y171639D01*
X28727Y173305D01*
X30736Y175314D01*
X74536Y175314D01*
X74634Y175326D01*
X74733Y175329D01*
X74791Y175346D01*
X74851Y175354D01*
X74943Y175390D01*
X75038Y175418D01*
X75091Y175448D01*
X75147Y175471D01*
X75227Y175529D01*
X75312Y175579D01*
X75388Y175645D01*
X75404Y175657D01*
X75412Y175667D01*
X75433Y175685D01*
X80434Y180686D01*
X80494Y180764D01*
X80562Y180836D01*
X80591Y180889D01*
X80628Y180937D01*
X80668Y181028D01*
X80716Y181115D01*
X80731Y181173D01*
X80755Y181229D01*
X80770Y181327D01*
X80795Y181423D01*
X80801Y181523D01*
X80805Y181543D01*
X80803Y181555D01*
X80805Y181583D01*
X80805Y196058D01*
X90042Y205295D01*
X97164Y205295D01*
X97262Y205307D01*
X97361Y205310D01*
X97419Y205327D01*
X97479Y205335D01*
X97571Y205371D01*
X97667Y205399D01*
X97719Y205429D01*
X97775Y205452D01*
X97855Y205510D01*
X97940Y205560D01*
X98016Y205626D01*
X98032Y205638D01*
X98040Y205648D01*
X98061Y205667D01*
X99102Y206707D01*
X100969Y207481D01*
X102991Y207481D01*
X104858Y206707D01*
X105999Y205566D01*
X106077Y205506D01*
X106149Y205438D01*
X106202Y205409D01*
X106250Y205372D01*
X106341Y205332D01*
X106428Y205284D01*
X106486Y205269D01*
X106542Y205245D01*
X106640Y205230D01*
X106736Y205205D01*
X106836Y205199D01*
X106856Y205195D01*
X106868Y205197D01*
X106896Y205195D01*
X150950Y205195D01*
X151048Y205207D01*
X151147Y205210D01*
X151205Y205227D01*
X151265Y205235D01*
X151357Y205271D01*
X151453Y205299D01*
X151505Y205329D01*
X151561Y205352D01*
X151641Y205410D01*
X151726Y205460D01*
X151802Y205526D01*
X151818Y205538D01*
X151826Y205548D01*
X151847Y205567D01*
X152788Y206507D01*
X154655Y207281D01*
X156025Y207281D01*
X156163Y207298D01*
X156301Y207311D01*
X156320Y207318D01*
X156340Y207321D01*
X156469Y207372D01*
X156600Y207419D01*
X156617Y207430D01*
X156636Y207438D01*
X156748Y207519D01*
X156863Y207597D01*
X156877Y207613D01*
X156893Y207624D01*
X156982Y207732D01*
X157074Y207836D01*
X157083Y207854D01*
X157096Y207869D01*
X157155Y207995D01*
X157219Y208119D01*
X157223Y208139D01*
X157232Y208157D01*
X157258Y208294D01*
X157288Y208429D01*
X157288Y208450D01*
X157291Y208469D01*
X157283Y208608D01*
X157279Y208747D01*
X157273Y208767D01*
X157272Y208787D01*
X157229Y208919D01*
X157190Y209053D01*
X157180Y209070D01*
X157174Y209089D01*
X157099Y209207D01*
X157029Y209327D01*
X157010Y209348D01*
X157003Y209358D01*
X156988Y209372D01*
X156922Y209447D01*
X155665Y210705D01*
X155587Y210765D01*
X155515Y210833D01*
X155462Y210862D01*
X155414Y210899D01*
X155323Y210939D01*
X155236Y210987D01*
X155178Y211002D01*
X155122Y211026D01*
X155024Y211041D01*
X154928Y211066D01*
X154828Y211072D01*
X154808Y211076D01*
X154796Y211074D01*
X154768Y211076D01*
X153953Y211076D01*
X153855Y211064D01*
X153756Y211061D01*
X153698Y211044D01*
X153638Y211036D01*
X153546Y211000D01*
X153451Y210972D01*
X153398Y210942D01*
X153342Y210919D01*
X153262Y210861D01*
X153177Y210811D01*
X153101Y210745D01*
X153085Y210733D01*
X153077Y210723D01*
X153056Y210705D01*
X151915Y209564D01*
X150048Y208790D01*
X148026Y208790D01*
X146159Y209564D01*
X144730Y210993D01*
X143956Y212860D01*
X143956Y214882D01*
X144730Y216749D01*
X146159Y218178D01*
X148026Y218952D01*
X150048Y218952D01*
X151915Y218178D01*
X153056Y217037D01*
X153134Y216977D01*
X153206Y216909D01*
X153259Y216880D01*
X153307Y216843D01*
X153398Y216803D01*
X153485Y216755D01*
X153543Y216740D01*
X153599Y216716D01*
X153697Y216701D01*
X153793Y216676D01*
X153893Y216670D01*
X153913Y216666D01*
X153925Y216668D01*
X153953Y216666D01*
X153992Y216666D01*
X154129Y216683D01*
X154268Y216696D01*
X154287Y216703D01*
X154307Y216706D01*
X154436Y216757D01*
X154568Y216804D01*
X154584Y216815D01*
X154603Y216823D01*
X154715Y216904D01*
X154831Y216982D01*
X154844Y216998D01*
X154860Y217009D01*
X154949Y217117D01*
X155041Y217221D01*
X155050Y217239D01*
X155063Y217254D01*
X155122Y217380D01*
X155186Y217504D01*
X155190Y217524D01*
X155199Y217542D01*
X155225Y217678D01*
X155255Y217814D01*
X155255Y217835D01*
X155259Y217854D01*
X155250Y217993D01*
X155246Y218132D01*
X155240Y218152D01*
X155239Y218172D01*
X155196Y218304D01*
X155157Y218438D01*
X155147Y218455D01*
X155141Y218474D01*
X155066Y218592D01*
X154996Y218712D01*
X154977Y218733D01*
X154971Y218743D01*
X154956Y218757D01*
X154889Y218832D01*
X151391Y222331D01*
X151313Y222391D01*
X151241Y222459D01*
X151188Y222489D01*
X151140Y222526D01*
X151049Y222565D01*
X150962Y222613D01*
X150904Y222628D01*
X150848Y222652D01*
X150750Y222668D01*
X150654Y222692D01*
X150554Y222699D01*
X150534Y222702D01*
X150522Y222701D01*
X150494Y222702D01*
X132520Y222702D01*
X129679Y222702D01*
X127671Y224711D01*
X112842Y239539D01*
X112842Y248981D01*
X112830Y249079D01*
X112827Y249178D01*
X112810Y249236D01*
X112803Y249296D01*
X112766Y249388D01*
X112739Y249484D01*
X112708Y249536D01*
X112685Y249592D01*
X112627Y249672D01*
X112577Y249757D01*
X112511Y249833D01*
X112499Y249849D01*
X112489Y249857D01*
X112471Y249878D01*
X111330Y251019D01*
X110556Y252886D01*
X110556Y254908D01*
X111330Y256775D01*
X112759Y258204D01*
X114626Y258978D01*
X116648Y258978D01*
X118515Y258204D01*
X119944Y256775D01*
X120718Y254908D01*
X120718Y252886D01*
X119944Y251019D01*
X118804Y249878D01*
X118743Y249800D01*
X118675Y249728D01*
X118646Y249675D01*
X118609Y249627D01*
X118569Y249536D01*
X118522Y249449D01*
X118506Y249391D01*
X118482Y249335D01*
X118467Y249237D01*
X118442Y249142D01*
X118436Y249041D01*
X118432Y249021D01*
X118434Y249009D01*
X118432Y248981D01*
X118432Y242380D01*
X118444Y242282D01*
X118447Y242183D01*
X118464Y242125D01*
X118472Y242065D01*
X118508Y241973D01*
X118536Y241878D01*
X118566Y241826D01*
X118589Y241769D01*
X118647Y241689D01*
X118697Y241604D01*
X118764Y241528D01*
X118776Y241512D01*
X118785Y241504D01*
X118804Y241483D01*
X131623Y228664D01*
X131701Y228603D01*
X131773Y228535D01*
X131826Y228506D01*
X131874Y228469D01*
X131965Y228429D01*
X132052Y228382D01*
X132110Y228366D01*
X132166Y228342D01*
X132264Y228327D01*
X132360Y228302D01*
X132460Y228296D01*
X132480Y228293D01*
X132492Y228294D01*
X132520Y228292D01*
X150494Y228292D01*
X153335Y228292D01*
X155343Y226284D01*
X155343Y226283D01*
X179444Y202183D01*
X179553Y202098D01*
X179660Y202009D01*
X179679Y202000D01*
X179695Y201988D01*
X179823Y201933D01*
X179948Y201874D01*
X179968Y201870D01*
X179987Y201862D01*
X180125Y201840D01*
X180261Y201814D01*
X180281Y201815D01*
X180301Y201812D01*
X180440Y201825D01*
X180578Y201834D01*
X180597Y201840D01*
X180617Y201842D01*
X180749Y201889D01*
X180880Y201932D01*
X180898Y201942D01*
X180917Y201949D01*
X181032Y202027D01*
X181149Y202102D01*
X181163Y202117D01*
X181180Y202128D01*
X181272Y202232D01*
X181367Y202333D01*
X181377Y202351D01*
X181390Y202366D01*
X181454Y202490D01*
X181521Y202612D01*
X181526Y202631D01*
X181535Y202650D01*
X181565Y202785D01*
X181600Y202920D01*
X181602Y202948D01*
X181605Y202960D01*
X181604Y202980D01*
X181610Y203080D01*
X181610Y215312D01*
X181598Y215410D01*
X181595Y215509D01*
X181578Y215567D01*
X181570Y215627D01*
X181534Y215719D01*
X181506Y215814D01*
X181476Y215867D01*
X181453Y215923D01*
X181395Y216003D01*
X181345Y216088D01*
X181279Y216164D01*
X181267Y216180D01*
X181257Y216188D01*
X181239Y216209D01*
X172604Y224844D01*
X172526Y224904D01*
X172454Y224972D01*
X172401Y225001D01*
X172353Y225038D01*
X172262Y225078D01*
X172175Y225126D01*
X172117Y225141D01*
X172061Y225165D01*
X171963Y225180D01*
X171867Y225205D01*
X171767Y225211D01*
X171747Y225215D01*
X171735Y225213D01*
X171707Y225215D01*
X164162Y225215D01*
X162154Y227224D01*
X145724Y243654D01*
X145646Y243714D01*
X145574Y243782D01*
X145521Y243811D01*
X145473Y243848D01*
X145382Y243888D01*
X145295Y243936D01*
X145237Y243951D01*
X145181Y243975D01*
X145083Y243990D01*
X144987Y244015D01*
X144887Y244021D01*
X144867Y244025D01*
X144855Y244023D01*
X144827Y244025D01*
X142916Y244025D01*
X142818Y244013D01*
X142719Y244010D01*
X142661Y243993D01*
X142601Y243985D01*
X142509Y243949D01*
X142414Y243921D01*
X142361Y243891D01*
X142305Y243868D01*
X142225Y243810D01*
X142140Y243760D01*
X142064Y243694D01*
X142048Y243682D01*
X142040Y243672D01*
X142019Y243654D01*
X140878Y242513D01*
X139011Y241739D01*
X136989Y241739D01*
X135122Y242513D01*
X133693Y243942D01*
X132919Y245809D01*
X132919Y247831D01*
X133693Y249698D01*
X135122Y251127D01*
X136989Y251901D01*
X139011Y251901D01*
X140878Y251127D01*
X142019Y249986D01*
X142097Y249926D01*
X142169Y249858D01*
X142222Y249829D01*
X142270Y249792D01*
X142361Y249752D01*
X142448Y249704D01*
X142506Y249689D01*
X142562Y249665D01*
X142660Y249650D01*
X142756Y249625D01*
X142856Y249619D01*
X142876Y249615D01*
X142888Y249617D01*
X142916Y249615D01*
X147668Y249615D01*
X149676Y247606D01*
X166106Y231176D01*
X166184Y231116D01*
X166256Y231048D01*
X166309Y231019D01*
X166357Y230982D01*
X166448Y230942D01*
X166535Y230894D01*
X166593Y230879D01*
X166649Y230855D01*
X166747Y230840D01*
X166843Y230815D01*
X166943Y230809D01*
X166963Y230805D01*
X166975Y230807D01*
X167003Y230805D01*
X174548Y230805D01*
X187200Y218153D01*
X187200Y202188D01*
X187212Y202090D01*
X187215Y201991D01*
X187232Y201933D01*
X187240Y201873D01*
X187276Y201781D01*
X187304Y201686D01*
X187334Y201633D01*
X187357Y201577D01*
X187415Y201497D01*
X187465Y201412D01*
X187531Y201336D01*
X187543Y201320D01*
X187553Y201312D01*
X187571Y201291D01*
X195905Y192958D01*
X195905Y169530D01*
X195920Y169412D01*
X195927Y169293D01*
X195940Y169255D01*
X195945Y169214D01*
X195988Y169104D01*
X196025Y168991D01*
X196047Y168956D01*
X196062Y168919D01*
X196131Y168823D01*
X196195Y168722D01*
X196225Y168694D01*
X196248Y168661D01*
X196340Y168585D01*
X196427Y168504D01*
X196462Y168484D01*
X196493Y168459D01*
X196601Y168408D01*
X196705Y168350D01*
X196745Y168340D01*
X196781Y168323D01*
X196898Y168301D01*
X197013Y168271D01*
X197073Y168267D01*
X197093Y168263D01*
X197114Y168265D01*
X197174Y168261D01*
X199051Y168261D01*
X200918Y167487D01*
X202347Y166058D01*
X203121Y164191D01*
X203121Y162169D01*
X202347Y160302D01*
X201183Y159138D01*
X201152Y159098D01*
X201145Y159092D01*
X201123Y159060D01*
X201110Y159043D01*
X201031Y158954D01*
X201013Y158918D01*
X200988Y158886D01*
X200968Y158840D01*
X200962Y158832D01*
X200946Y158791D01*
X200941Y158777D01*
X200886Y158671D01*
X200878Y158632D01*
X200861Y158594D01*
X200854Y158546D01*
X200849Y158535D01*
X200843Y158480D01*
X200843Y158477D01*
X200817Y158361D01*
X200818Y158320D01*
X200812Y158280D01*
X200816Y158234D01*
X200814Y158219D01*
X200823Y158156D01*
X200826Y158043D01*
X200838Y158004D01*
X200841Y157964D01*
X200856Y157924D01*
X200859Y157904D01*
X200911Y157751D01*
X200911Y157750D01*
X200915Y157737D01*
X200920Y157728D01*
X201781Y155651D01*
X201781Y153629D01*
X201007Y151762D01*
X199578Y150333D01*
X197711Y149559D01*
X196250Y149559D01*
X196132Y149544D01*
X196013Y149537D01*
X195975Y149524D01*
X195934Y149519D01*
X195824Y149476D01*
X195711Y149439D01*
X195676Y149417D01*
X195639Y149402D01*
X195543Y149333D01*
X195442Y149269D01*
X195414Y149239D01*
X195381Y149216D01*
X195305Y149124D01*
X195224Y149037D01*
X195204Y149002D01*
X195179Y148971D01*
X195128Y148863D01*
X195070Y148759D01*
X195060Y148719D01*
X195043Y148683D01*
X195021Y148566D01*
X194991Y148451D01*
X194987Y148391D01*
X194983Y148371D01*
X194985Y148350D01*
X194981Y148290D01*
X194981Y147869D01*
X194207Y146002D01*
X192778Y144573D01*
X190911Y143799D01*
X188889Y143799D01*
X187022Y144573D01*
X185593Y146002D01*
X184819Y147869D01*
X184819Y149483D01*
X184807Y149581D01*
X184804Y149680D01*
X184787Y149738D01*
X184779Y149798D01*
X184743Y149890D01*
X184715Y149985D01*
X184685Y150038D01*
X184662Y150094D01*
X184604Y150174D01*
X184554Y150259D01*
X184488Y150335D01*
X184476Y150351D01*
X184466Y150359D01*
X184448Y150380D01*
X182361Y152466D01*
X182252Y152551D01*
X182145Y152640D01*
X182126Y152649D01*
X182110Y152661D01*
X181982Y152717D01*
X181857Y152776D01*
X181837Y152779D01*
X181818Y152787D01*
X181680Y152809D01*
X181544Y152835D01*
X181524Y152834D01*
X181504Y152837D01*
X181365Y152824D01*
X181227Y152816D01*
X181208Y152809D01*
X181188Y152808D01*
X181056Y152760D01*
X180925Y152718D01*
X180907Y152707D01*
X180888Y152700D01*
X180773Y152622D01*
X180656Y152547D01*
X180642Y152533D01*
X180625Y152521D01*
X180533Y152417D01*
X180438Y152316D01*
X180428Y152298D01*
X180415Y152283D01*
X180351Y152159D01*
X180284Y152037D01*
X180279Y152018D01*
X180270Y152000D01*
X180240Y151864D01*
X180205Y151729D01*
X180203Y151701D01*
X180200Y151689D01*
X180201Y151669D01*
X180195Y151569D01*
X180195Y126818D01*
X180210Y126700D01*
X180217Y126581D01*
X180230Y126543D01*
X180235Y126503D01*
X180278Y126392D01*
X180315Y126279D01*
X180337Y126245D01*
X180352Y126207D01*
X180421Y126111D01*
X180485Y126010D01*
X180515Y125982D01*
X180538Y125950D01*
X180630Y125874D01*
X180717Y125792D01*
X180752Y125773D01*
X180783Y125747D01*
X180891Y125696D01*
X180995Y125639D01*
X181035Y125629D01*
X181071Y125611D01*
X181188Y125589D01*
X181303Y125559D01*
X181363Y125555D01*
X181383Y125552D01*
X181404Y125553D01*
X181464Y125549D01*
X181983Y125549D01*
X183850Y124775D01*
X185279Y123346D01*
X186053Y121479D01*
X186053Y119458D01*
X185279Y117590D01*
X183850Y116161D01*
X181983Y115387D01*
X179961Y115387D01*
X178094Y116161D01*
X176665Y117590D01*
X175891Y119458D01*
X175891Y121071D01*
X175879Y121169D01*
X175876Y121268D01*
X175859Y121326D01*
X175852Y121386D01*
X175815Y121478D01*
X175788Y121574D01*
X175757Y121626D01*
X175734Y121682D01*
X175676Y121762D01*
X175626Y121848D01*
X175560Y121923D01*
X175548Y121939D01*
X175538Y121947D01*
X175520Y121968D01*
X174605Y122883D01*
X174605Y170917D01*
X174593Y171015D01*
X174590Y171114D01*
X174573Y171172D01*
X174565Y171232D01*
X174529Y171324D01*
X174501Y171419D01*
X174471Y171472D01*
X174448Y171528D01*
X174390Y171608D01*
X174340Y171693D01*
X174274Y171769D01*
X174262Y171785D01*
X174252Y171793D01*
X174234Y171814D01*
X162424Y183624D01*
X162346Y183684D01*
X162274Y183752D01*
X162221Y183781D01*
X162173Y183818D01*
X162082Y183858D01*
X161995Y183906D01*
X161937Y183921D01*
X161881Y183945D01*
X161783Y183960D01*
X161687Y183985D01*
X161587Y183991D01*
X161567Y183995D01*
X161555Y183993D01*
X161527Y183995D01*
X122293Y183995D01*
X122195Y183983D01*
X122096Y183980D01*
X122038Y183963D01*
X121978Y183955D01*
X121886Y183919D01*
X121804Y183895D01*
X119352Y183895D01*
X117020Y186228D01*
X116942Y186288D01*
X116870Y186356D01*
X116817Y186385D01*
X116769Y186422D01*
X116678Y186462D01*
X116591Y186510D01*
X116533Y186525D01*
X116477Y186549D01*
X116379Y186564D01*
X116283Y186589D01*
X116183Y186595D01*
X116163Y186599D01*
X116151Y186597D01*
X116123Y186599D01*
X114509Y186599D01*
X112642Y187373D01*
X111213Y188802D01*
X110439Y190669D01*
X110439Y192691D01*
X111213Y194558D01*
X112642Y195987D01*
X114509Y196761D01*
X116531Y196761D01*
X118398Y195987D01*
X119827Y194558D01*
X120601Y192691D01*
X120601Y191077D01*
X120613Y190979D01*
X120616Y190880D01*
X120633Y190822D01*
X120641Y190762D01*
X120677Y190670D01*
X120705Y190575D01*
X120735Y190522D01*
X120758Y190466D01*
X120816Y190386D01*
X120866Y190301D01*
X120932Y190225D01*
X120944Y190209D01*
X120954Y190201D01*
X120972Y190180D01*
X121196Y189956D01*
X121274Y189896D01*
X121346Y189828D01*
X121399Y189799D01*
X121447Y189762D01*
X121538Y189722D01*
X121625Y189674D01*
X121683Y189659D01*
X121739Y189635D01*
X121837Y189620D01*
X121933Y189595D01*
X122033Y189589D01*
X122053Y189585D01*
X122065Y189587D01*
X122093Y189585D01*
X161465Y189585D01*
X161603Y189602D01*
X161742Y189615D01*
X161761Y189622D01*
X161781Y189625D01*
X161910Y189676D01*
X162041Y189723D01*
X162058Y189734D01*
X162077Y189742D01*
X162189Y189823D01*
X162304Y189901D01*
X162318Y189917D01*
X162334Y189928D01*
X162423Y190036D01*
X162515Y190140D01*
X162524Y190158D01*
X162537Y190173D01*
X162596Y190299D01*
X162659Y190423D01*
X162664Y190443D01*
X162672Y190461D01*
X162698Y190597D01*
X162729Y190733D01*
X162728Y190754D01*
X162732Y190773D01*
X162723Y190912D01*
X162719Y191051D01*
X162714Y191071D01*
X162712Y191091D01*
X162670Y191223D01*
X162631Y191357D01*
X162620Y191374D01*
X162614Y191393D01*
X162540Y191511D01*
X162469Y191631D01*
X162451Y191652D01*
X162444Y191662D01*
X162429Y191676D01*
X162363Y191752D01*
X157380Y196734D01*
X157379Y196735D01*
X157366Y196748D01*
X157288Y196808D01*
X157216Y196876D01*
X157163Y196905D01*
X157115Y196942D01*
X157024Y196982D01*
X156937Y197030D01*
X156879Y197045D01*
X156823Y197069D01*
X156725Y197084D01*
X156629Y197109D01*
X156529Y197115D01*
X156509Y197119D01*
X156497Y197117D01*
X156469Y197119D01*
X154655Y197119D01*
X152788Y197893D01*
X151447Y199234D01*
X151369Y199294D01*
X151297Y199362D01*
X151244Y199391D01*
X151196Y199428D01*
X151105Y199468D01*
X151018Y199516D01*
X150960Y199531D01*
X150904Y199555D01*
X150806Y199570D01*
X150710Y199595D01*
X150610Y199601D01*
X150590Y199605D01*
X150578Y199603D01*
X150550Y199605D01*
X106896Y199605D01*
X106798Y199593D01*
X106699Y199590D01*
X106641Y199573D01*
X106581Y199565D01*
X106489Y199529D01*
X106394Y199501D01*
X106341Y199471D01*
X106285Y199448D01*
X106205Y199390D01*
X106120Y199340D01*
X106044Y199274D01*
X106028Y199262D01*
X106020Y199252D01*
X105999Y199234D01*
X104858Y198093D01*
X102991Y197319D01*
X100969Y197319D01*
X99102Y198093D01*
X97861Y199334D01*
X97783Y199394D01*
X97711Y199462D01*
X97658Y199491D01*
X97610Y199528D01*
X97519Y199568D01*
X97432Y199616D01*
X97374Y199631D01*
X97318Y199655D01*
X97220Y199670D01*
X97124Y199695D01*
X97024Y199701D01*
X97004Y199705D01*
X96992Y199703D01*
X96964Y199705D01*
X92883Y199705D01*
X92785Y199693D01*
X92686Y199690D01*
X92628Y199673D01*
X92568Y199665D01*
X92476Y199629D01*
X92381Y199601D01*
X92328Y199571D01*
X92272Y199548D01*
X92192Y199490D01*
X92107Y199440D01*
X92031Y199374D01*
X92015Y199362D01*
X92007Y199352D01*
X91986Y199334D01*
X86766Y194114D01*
X86706Y194036D01*
X86638Y193964D01*
X86609Y193911D01*
X86572Y193863D01*
X86532Y193772D01*
X86484Y193685D01*
X86469Y193627D01*
X86445Y193571D01*
X86430Y193473D01*
X86405Y193377D01*
X86399Y193277D01*
X86395Y193257D01*
X86397Y193245D01*
X86395Y193217D01*
X86395Y181314D01*
X86410Y181196D01*
X86417Y181077D01*
X86430Y181039D01*
X86435Y180998D01*
X86478Y180888D01*
X86515Y180775D01*
X86537Y180740D01*
X86552Y180703D01*
X86621Y180607D01*
X86685Y180506D01*
X86715Y180478D01*
X86738Y180445D01*
X86830Y180369D01*
X86917Y180288D01*
X86952Y180268D01*
X86983Y180243D01*
X87091Y180192D01*
X87195Y180134D01*
X87235Y180124D01*
X87271Y180107D01*
X87388Y180085D01*
X87503Y180055D01*
X87563Y180051D01*
X87583Y180047D01*
X87604Y180049D01*
X87664Y180045D01*
X106056Y180045D01*
X109387Y176714D01*
X109465Y176653D01*
X109537Y176585D01*
X109590Y176556D01*
X109638Y176519D01*
X109729Y176479D01*
X109816Y176431D01*
X109875Y176416D01*
X109930Y176392D01*
X110028Y176377D01*
X110124Y176352D01*
X110224Y176346D01*
X110244Y176342D01*
X110257Y176344D01*
X110285Y176342D01*
X111970Y176342D01*
X113837Y175568D01*
X115266Y174139D01*
X116040Y172272D01*
X116040Y170658D01*
X116052Y170560D01*
X116055Y170461D01*
X116072Y170403D01*
X116080Y170343D01*
X116116Y170251D01*
X116143Y170156D01*
X116174Y170104D01*
X116197Y170047D01*
X116255Y169967D01*
X116305Y169882D01*
X116371Y169806D01*
X116383Y169790D01*
X116393Y169782D01*
X116411Y169761D01*
X117909Y168264D01*
X117909Y168263D01*
X119918Y166255D01*
X119918Y128838D01*
X117909Y126830D01*
X112285Y121205D01*
X112224Y121127D01*
X112156Y121055D01*
X112127Y121002D01*
X112090Y120954D01*
X112050Y120863D01*
X112002Y120776D01*
X111987Y120718D01*
X111963Y120662D01*
X111948Y120564D01*
X111923Y120469D01*
X111917Y120368D01*
X111913Y120348D01*
X111915Y120336D01*
X111913Y120308D01*
X111913Y114920D01*
X111925Y114822D01*
X111928Y114723D01*
X111945Y114665D01*
X111953Y114604D01*
X111989Y114512D01*
X112017Y114417D01*
X112047Y114365D01*
X112070Y114309D01*
X112128Y114229D01*
X112178Y114143D01*
X112245Y114068D01*
X112257Y114051D01*
X112266Y114044D01*
X112285Y114023D01*
X115853Y110454D01*
X115948Y110381D01*
X116037Y110302D01*
X116073Y110284D01*
X116105Y110259D01*
X116214Y110211D01*
X116320Y110157D01*
X116359Y110148D01*
X116397Y110132D01*
X116514Y110114D01*
X116630Y110088D01*
X116671Y110089D01*
X116711Y110083D01*
X116829Y110094D01*
X116948Y110097D01*
X116987Y110109D01*
X117027Y110112D01*
X117139Y110153D01*
X117254Y110186D01*
X117288Y110206D01*
X117327Y110220D01*
X117338Y110227D01*
X119349Y111061D01*
X121371Y111061D01*
X123238Y110287D01*
X124667Y108858D01*
X125441Y106991D01*
X125441Y104969D01*
X124667Y103102D01*
X123238Y101673D01*
X121371Y100899D01*
X119349Y100899D01*
X117482Y101673D01*
X116341Y102814D01*
X116263Y102874D01*
X116191Y102942D01*
X116138Y102971D01*
X116090Y103008D01*
X115999Y103048D01*
X115912Y103096D01*
X115854Y103111D01*
X115798Y103135D01*
X115700Y103150D01*
X115604Y103175D01*
X115504Y103181D01*
X115484Y103185D01*
X115472Y103183D01*
X115444Y103185D01*
X115217Y103185D01*
X113208Y105194D01*
X110016Y108387D01*
X109906Y108472D01*
X109799Y108561D01*
X109780Y108569D01*
X109764Y108582D01*
X109636Y108637D01*
X109511Y108696D01*
X109491Y108700D01*
X109472Y108708D01*
X109334Y108730D01*
X109199Y108756D01*
X109178Y108755D01*
X109158Y108758D01*
X109019Y108745D01*
X108881Y108736D01*
X108862Y108730D01*
X108842Y108728D01*
X108710Y108681D01*
X108579Y108638D01*
X108562Y108627D01*
X108542Y108621D01*
X108427Y108542D01*
X108310Y108468D01*
X108296Y108453D01*
X108279Y108442D01*
X108187Y108338D01*
X108092Y108236D01*
X108082Y108219D01*
X108069Y108204D01*
X108005Y108079D01*
X107938Y107958D01*
X107933Y107938D01*
X107924Y107920D01*
X107894Y107784D01*
X107859Y107650D01*
X107857Y107622D01*
X107855Y107610D01*
X107855Y107590D01*
X107849Y107489D01*
X107849Y98508D01*
X107861Y98410D01*
X107864Y98311D01*
X107881Y98253D01*
X107889Y98193D01*
X107925Y98101D01*
X107953Y98006D01*
X107983Y97953D01*
X108006Y97897D01*
X108064Y97817D01*
X108114Y97732D01*
X108181Y97656D01*
X108193Y97640D01*
X108202Y97632D01*
X108221Y97611D01*
X109385Y96446D01*
X109463Y96386D01*
X109535Y96318D01*
X109588Y96289D01*
X109636Y96252D01*
X109727Y96212D01*
X109814Y96164D01*
X109872Y96149D01*
X109928Y96125D01*
X110026Y96110D01*
X110122Y96085D01*
X110222Y96079D01*
X110242Y96075D01*
X110254Y96077D01*
X110282Y96075D01*
X132810Y96075D01*
X132908Y96087D01*
X133007Y96090D01*
X133065Y96107D01*
X133125Y96115D01*
X133218Y96151D01*
X133313Y96179D01*
X133365Y96209D01*
X133421Y96232D01*
X133501Y96290D01*
X133587Y96340D01*
X133662Y96406D01*
X133678Y96418D01*
X133686Y96428D01*
X133707Y96446D01*
X142458Y105197D01*
X142519Y105275D01*
X142587Y105347D01*
X142616Y105400D01*
X142653Y105448D01*
X142692Y105539D01*
X142740Y105626D01*
X142755Y105684D01*
X142779Y105740D01*
X142795Y105838D01*
X142820Y105934D01*
X142826Y106034D01*
X142829Y106054D01*
X142828Y106067D01*
X142830Y106095D01*
X142830Y115606D01*
X142826Y115636D01*
X142828Y115665D01*
X142806Y115793D01*
X142790Y115922D01*
X142779Y115949D01*
X142774Y115978D01*
X142721Y116097D01*
X142673Y116218D01*
X142656Y116241D01*
X142643Y116268D01*
X142562Y116370D01*
X142486Y116475D01*
X142463Y116494D01*
X142445Y116517D01*
X142341Y116595D01*
X142241Y116678D01*
X142214Y116690D01*
X142191Y116708D01*
X142046Y116779D01*
X140472Y117431D01*
X139043Y118860D01*
X138269Y120728D01*
X138269Y122749D01*
X139043Y124616D01*
X140472Y126045D01*
X142339Y126819D01*
X144361Y126819D01*
X146228Y126045D01*
X147657Y124616D01*
X148431Y122749D01*
X148431Y120613D01*
X148429Y120608D01*
X148419Y120447D01*
X148419Y103254D01*
X146411Y101245D01*
X146410Y101245D01*
X137660Y92494D01*
X135651Y90485D01*
X107441Y90485D01*
G37*
%LPD*%
%LPC*%
G36*
X9496Y41061D02*
X9496Y41061D01*
X7629Y41834D01*
X6200Y43264D01*
X5426Y45131D01*
X5426Y47152D01*
X6200Y49020D01*
X7341Y50160D01*
X7401Y50239D01*
X7469Y50311D01*
X7498Y50364D01*
X7536Y50412D01*
X7575Y50503D01*
X7623Y50589D01*
X7638Y50648D01*
X7662Y50703D01*
X7677Y50801D01*
X7702Y50897D01*
X7709Y50997D01*
X7712Y51018D01*
X7711Y51030D01*
X7712Y51058D01*
X7712Y87495D01*
X11895Y91678D01*
X11968Y91772D01*
X12047Y91861D01*
X12065Y91897D01*
X12090Y91929D01*
X12137Y92038D01*
X12192Y92144D01*
X12200Y92183D01*
X12216Y92221D01*
X12235Y92338D01*
X12261Y92454D01*
X12260Y92495D01*
X12266Y92535D01*
X12255Y92653D01*
X12252Y92772D01*
X12240Y92811D01*
X12236Y92851D01*
X12196Y92963D01*
X12163Y93078D01*
X12143Y93113D01*
X12129Y93151D01*
X12062Y93249D01*
X12002Y93352D01*
X11962Y93397D01*
X11950Y93414D01*
X11935Y93427D01*
X11895Y93473D01*
X10394Y94974D01*
X6145Y99222D01*
X6145Y216928D01*
X21642Y232425D01*
X21703Y232503D01*
X21771Y232575D01*
X21800Y232628D01*
X21837Y232676D01*
X21877Y232767D01*
X21924Y232853D01*
X21939Y232912D01*
X21963Y232968D01*
X21979Y233066D01*
X22004Y233161D01*
X22010Y233261D01*
X22013Y233282D01*
X22012Y233294D01*
X22014Y233322D01*
X22014Y281997D01*
X22002Y282095D01*
X21999Y282194D01*
X21982Y282252D01*
X21974Y282312D01*
X21938Y282404D01*
X21910Y282499D01*
X21879Y282552D01*
X21857Y282608D01*
X21799Y282688D01*
X21749Y282773D01*
X21682Y282849D01*
X21670Y282865D01*
X21661Y282873D01*
X21642Y282894D01*
X20980Y283556D01*
X20207Y285424D01*
X20207Y287445D01*
X20356Y287804D01*
X20369Y287852D01*
X20390Y287897D01*
X20410Y288005D01*
X20439Y288111D01*
X20440Y288161D01*
X20450Y288210D01*
X20443Y288319D01*
X20445Y288429D01*
X20433Y288477D01*
X20430Y288527D01*
X20396Y288631D01*
X20370Y288738D01*
X20347Y288782D01*
X20332Y288829D01*
X20273Y288922D01*
X20222Y289019D01*
X20188Y289056D01*
X20162Y289098D01*
X20082Y289173D01*
X20008Y289255D01*
X19966Y289282D01*
X19930Y289316D01*
X19834Y289369D01*
X19742Y289429D01*
X19695Y289446D01*
X19652Y289470D01*
X19545Y289497D01*
X19441Y289533D01*
X19392Y289537D01*
X19344Y289549D01*
X19183Y289559D01*
X16429Y289559D01*
X16429Y297181D01*
X24051Y297181D01*
X24051Y292784D01*
X24066Y292666D01*
X24073Y292547D01*
X24086Y292509D01*
X24091Y292469D01*
X24134Y292358D01*
X24171Y292245D01*
X24193Y292211D01*
X24208Y292173D01*
X24277Y292077D01*
X24341Y291976D01*
X24371Y291948D01*
X24394Y291916D01*
X24486Y291840D01*
X24573Y291758D01*
X24608Y291739D01*
X24639Y291713D01*
X24747Y291662D01*
X24851Y291605D01*
X24891Y291595D01*
X24927Y291577D01*
X25044Y291555D01*
X25159Y291525D01*
X25219Y291521D01*
X25239Y291518D01*
X25260Y291519D01*
X25320Y291515D01*
X26298Y291515D01*
X28165Y290742D01*
X29595Y289312D01*
X30368Y287445D01*
X30368Y285424D01*
X29595Y283556D01*
X27987Y281949D01*
X27965Y281920D01*
X27884Y281842D01*
X27868Y281816D01*
X27847Y281793D01*
X27798Y281705D01*
X27792Y281697D01*
X27786Y281683D01*
X27784Y281681D01*
X27717Y281571D01*
X27708Y281542D01*
X27693Y281515D01*
X27661Y281391D01*
X27623Y281268D01*
X27621Y281237D01*
X27614Y281207D01*
X27603Y281046D01*
X27603Y230481D01*
X12106Y214984D01*
X12046Y214906D01*
X11978Y214834D01*
X11949Y214781D01*
X11912Y214733D01*
X11872Y214642D01*
X11824Y214555D01*
X11809Y214497D01*
X11785Y214441D01*
X11770Y214343D01*
X11745Y214247D01*
X11739Y214147D01*
X11735Y214127D01*
X11737Y214115D01*
X11735Y214087D01*
X11735Y102063D01*
X11747Y101965D01*
X11750Y101866D01*
X11767Y101808D01*
X11775Y101748D01*
X11811Y101656D01*
X11839Y101561D01*
X11869Y101508D01*
X11892Y101452D01*
X11950Y101372D01*
X12000Y101287D01*
X12066Y101211D01*
X12078Y101195D01*
X12088Y101187D01*
X12106Y101166D01*
X14346Y98926D01*
X14424Y98866D01*
X14496Y98798D01*
X14549Y98769D01*
X14597Y98732D01*
X14688Y98692D01*
X14775Y98644D01*
X14833Y98629D01*
X14889Y98605D01*
X14987Y98590D01*
X15083Y98565D01*
X15183Y98559D01*
X15203Y98555D01*
X15215Y98557D01*
X15243Y98555D01*
X36398Y98555D01*
X38406Y96546D01*
X46936Y88016D01*
X47014Y87956D01*
X47086Y87888D01*
X47139Y87859D01*
X47187Y87822D01*
X47278Y87782D01*
X47365Y87734D01*
X47423Y87719D01*
X47479Y87695D01*
X47577Y87680D01*
X47673Y87655D01*
X47773Y87649D01*
X47793Y87645D01*
X47805Y87647D01*
X47833Y87645D01*
X118958Y87645D01*
X126118Y80484D01*
X126196Y80423D01*
X126269Y80356D01*
X126322Y80326D01*
X126369Y80289D01*
X126460Y80250D01*
X126547Y80202D01*
X126606Y80187D01*
X126661Y80163D01*
X126759Y80147D01*
X126855Y80123D01*
X126955Y80116D01*
X126975Y80113D01*
X126988Y80114D01*
X127016Y80112D01*
X131643Y80112D01*
X131741Y80125D01*
X131840Y80128D01*
X131899Y80145D01*
X131959Y80152D01*
X132051Y80189D01*
X132146Y80216D01*
X132198Y80247D01*
X132254Y80269D01*
X132334Y80327D01*
X132420Y80378D01*
X132495Y80444D01*
X132512Y80456D01*
X132520Y80466D01*
X132541Y80484D01*
X152534Y100477D01*
X152594Y100555D01*
X152662Y100627D01*
X152691Y100680D01*
X152728Y100728D01*
X152768Y100819D01*
X152816Y100906D01*
X152831Y100964D01*
X152855Y101020D01*
X152870Y101118D01*
X152895Y101214D01*
X152901Y101314D01*
X152905Y101334D01*
X152903Y101346D01*
X152905Y101374D01*
X152905Y128517D01*
X152893Y128615D01*
X152890Y128714D01*
X152873Y128772D01*
X152865Y128832D01*
X152829Y128924D01*
X152801Y129019D01*
X152771Y129072D01*
X152748Y129128D01*
X152690Y129208D01*
X152640Y129293D01*
X152574Y129369D01*
X152562Y129385D01*
X152552Y129393D01*
X152534Y129414D01*
X150214Y131734D01*
X150136Y131794D01*
X150064Y131862D01*
X150011Y131891D01*
X149963Y131928D01*
X149872Y131968D01*
X149785Y132016D01*
X149727Y132031D01*
X149671Y132055D01*
X149573Y132070D01*
X149477Y132095D01*
X149377Y132101D01*
X149357Y132105D01*
X149345Y132103D01*
X149317Y132105D01*
X138683Y132105D01*
X138585Y132093D01*
X138486Y132090D01*
X138428Y132073D01*
X138368Y132065D01*
X138276Y132029D01*
X138181Y132001D01*
X138128Y131971D01*
X138072Y131948D01*
X137992Y131890D01*
X137907Y131840D01*
X137831Y131774D01*
X137815Y131762D01*
X137807Y131752D01*
X137786Y131734D01*
X135422Y129370D01*
X135361Y129291D01*
X135293Y129219D01*
X135264Y129166D01*
X135227Y129118D01*
X135188Y129027D01*
X135140Y128941D01*
X135125Y128882D01*
X135101Y128827D01*
X135085Y128729D01*
X135061Y128633D01*
X135055Y128540D01*
X135053Y128531D01*
X135053Y128526D01*
X135051Y128512D01*
X135052Y128500D01*
X135050Y128472D01*
X135050Y114086D01*
X135054Y114056D01*
X135052Y114027D01*
X135074Y113899D01*
X135090Y113770D01*
X135101Y113743D01*
X135106Y113714D01*
X135159Y113595D01*
X135207Y113475D01*
X135224Y113451D01*
X135237Y113424D01*
X135318Y113322D01*
X135394Y113217D01*
X135417Y113198D01*
X135435Y113175D01*
X135539Y113098D01*
X135639Y113014D01*
X135666Y113002D01*
X135689Y112984D01*
X135834Y112913D01*
X136138Y112787D01*
X137567Y111358D01*
X138341Y109491D01*
X138341Y107469D01*
X137567Y105602D01*
X136138Y104173D01*
X134271Y103399D01*
X132249Y103399D01*
X130382Y104173D01*
X128953Y105602D01*
X128179Y107469D01*
X128179Y109491D01*
X128953Y111358D01*
X129089Y111494D01*
X129150Y111573D01*
X129218Y111645D01*
X129247Y111698D01*
X129284Y111746D01*
X129323Y111837D01*
X129371Y111923D01*
X129386Y111982D01*
X129410Y112037D01*
X129426Y112135D01*
X129451Y112231D01*
X129457Y112331D01*
X129460Y112352D01*
X129459Y112364D01*
X129461Y112392D01*
X129461Y120424D01*
X129443Y120562D01*
X129430Y120701D01*
X129424Y120720D01*
X129421Y120740D01*
X129370Y120869D01*
X129323Y121000D01*
X129311Y121017D01*
X129304Y121035D01*
X129222Y121148D01*
X129144Y121263D01*
X129129Y121276D01*
X129117Y121293D01*
X129010Y121381D01*
X128906Y121474D01*
X128888Y121483D01*
X128872Y121496D01*
X128747Y121555D01*
X128622Y121618D01*
X128603Y121623D01*
X128584Y121631D01*
X128448Y121657D01*
X128312Y121688D01*
X128292Y121687D01*
X128272Y121691D01*
X128133Y121682D01*
X127994Y121678D01*
X127975Y121672D01*
X127955Y121671D01*
X127823Y121628D01*
X127689Y121590D01*
X127671Y121579D01*
X127652Y121573D01*
X127535Y121499D01*
X127415Y121428D01*
X127394Y121410D01*
X127383Y121403D01*
X127369Y121388D01*
X127294Y121322D01*
X126952Y120980D01*
X126892Y120902D01*
X126824Y120830D01*
X126795Y120777D01*
X126758Y120729D01*
X126718Y120638D01*
X126670Y120551D01*
X126655Y120493D01*
X126631Y120437D01*
X126616Y120339D01*
X126591Y120243D01*
X126585Y120143D01*
X126581Y120123D01*
X126583Y120111D01*
X126581Y120083D01*
X126581Y118469D01*
X125807Y116602D01*
X124378Y115173D01*
X122511Y114399D01*
X120489Y114399D01*
X118622Y115173D01*
X117193Y116602D01*
X116419Y118469D01*
X116419Y120491D01*
X117193Y122358D01*
X118622Y123787D01*
X120489Y124561D01*
X122103Y124561D01*
X122201Y124573D01*
X122300Y124576D01*
X122358Y124593D01*
X122418Y124601D01*
X122510Y124637D01*
X122605Y124665D01*
X122658Y124695D01*
X122714Y124718D01*
X122794Y124776D01*
X122879Y124826D01*
X122955Y124892D01*
X122971Y124904D01*
X122979Y124914D01*
X123000Y124932D01*
X124834Y126766D01*
X124894Y126844D01*
X124962Y126916D01*
X124991Y126969D01*
X125028Y127017D01*
X125068Y127108D01*
X125116Y127195D01*
X125131Y127253D01*
X125155Y127309D01*
X125170Y127407D01*
X125195Y127503D01*
X125201Y127603D01*
X125205Y127623D01*
X125203Y127635D01*
X125205Y127663D01*
X125205Y135528D01*
X132372Y142695D01*
X155058Y142695D01*
X161186Y136566D01*
X163195Y134558D01*
X163195Y94144D01*
X139393Y70342D01*
X122306Y70342D01*
X117826Y74822D01*
X117771Y74865D01*
X117722Y74915D01*
X117646Y74962D01*
X117575Y75017D01*
X117511Y75044D01*
X117451Y75081D01*
X117365Y75107D01*
X117283Y75143D01*
X117214Y75154D01*
X117147Y75175D01*
X117057Y75179D01*
X116969Y75193D01*
X116899Y75186D01*
X116829Y75190D01*
X116742Y75171D01*
X116652Y75163D01*
X116586Y75139D01*
X116518Y75125D01*
X116437Y75086D01*
X116353Y75055D01*
X116295Y75016D01*
X116232Y74986D01*
X116164Y74927D01*
X116090Y74877D01*
X116043Y74825D01*
X115990Y74779D01*
X115939Y74706D01*
X115879Y74638D01*
X115847Y74576D01*
X115807Y74519D01*
X115775Y74435D01*
X115735Y74355D01*
X115719Y74287D01*
X115695Y74222D01*
X115685Y74133D01*
X115665Y74045D01*
X115667Y73975D01*
X115659Y73906D01*
X115672Y73817D01*
X115675Y73727D01*
X115694Y73660D01*
X115704Y73591D01*
X115756Y73438D01*
X115971Y72920D01*
X116291Y71310D01*
X116291Y66324D01*
X108315Y66324D01*
X108197Y66309D01*
X108078Y66302D01*
X108040Y66289D01*
X108000Y66284D01*
X107961Y66269D01*
X107881Y66284D01*
X107765Y66314D01*
X107705Y66318D01*
X107685Y66322D01*
X107665Y66320D01*
X107605Y66324D01*
X99629Y66324D01*
X99629Y71310D01*
X99949Y72920D01*
X100577Y74436D01*
X100964Y75015D01*
X100971Y75028D01*
X100980Y75039D01*
X101042Y75170D01*
X101106Y75299D01*
X101109Y75314D01*
X101116Y75327D01*
X101143Y75468D01*
X101173Y75610D01*
X101173Y75625D01*
X101175Y75640D01*
X101167Y75783D01*
X101161Y75928D01*
X101157Y75942D01*
X101156Y75957D01*
X101111Y76094D01*
X101070Y76233D01*
X101062Y76245D01*
X101058Y76259D01*
X100981Y76381D01*
X100906Y76505D01*
X100895Y76516D01*
X100888Y76528D01*
X100782Y76627D01*
X100679Y76729D01*
X100667Y76736D01*
X100656Y76746D01*
X100530Y76816D01*
X100405Y76888D01*
X100390Y76892D01*
X100377Y76900D01*
X100237Y76936D01*
X100099Y76975D01*
X100084Y76975D01*
X100069Y76979D01*
X99909Y76989D01*
X45109Y76989D01*
X44972Y76972D01*
X44833Y76959D01*
X44814Y76952D01*
X44794Y76949D01*
X44665Y76898D01*
X44534Y76851D01*
X44517Y76840D01*
X44498Y76832D01*
X44386Y76751D01*
X44271Y76673D01*
X44257Y76657D01*
X44241Y76646D01*
X44152Y76538D01*
X44060Y76434D01*
X44051Y76416D01*
X44038Y76401D01*
X43979Y76275D01*
X43916Y76151D01*
X43911Y76131D01*
X43903Y76113D01*
X43876Y75977D01*
X43846Y75841D01*
X43847Y75820D01*
X43843Y75801D01*
X43851Y75662D01*
X43856Y75523D01*
X43861Y75503D01*
X43862Y75483D01*
X43905Y75351D01*
X43944Y75217D01*
X43954Y75200D01*
X43961Y75181D01*
X44035Y75063D01*
X44106Y74943D01*
X44124Y74922D01*
X44131Y74912D01*
X44146Y74898D01*
X44212Y74823D01*
X67800Y51234D01*
X67878Y51174D01*
X67950Y51106D01*
X68003Y51077D01*
X68051Y51040D01*
X68142Y51000D01*
X68229Y50952D01*
X68287Y50937D01*
X68343Y50913D01*
X68441Y50898D01*
X68537Y50873D01*
X68637Y50867D01*
X68657Y50863D01*
X68669Y50865D01*
X68697Y50863D01*
X72264Y50863D01*
X72362Y50875D01*
X72461Y50878D01*
X72519Y50895D01*
X72579Y50903D01*
X72671Y50939D01*
X72767Y50967D01*
X72819Y50997D01*
X72875Y51020D01*
X72955Y51078D01*
X73040Y51128D01*
X73116Y51194D01*
X73132Y51206D01*
X73140Y51216D01*
X73161Y51234D01*
X74302Y52375D01*
X76169Y53149D01*
X78191Y53149D01*
X80058Y52375D01*
X81487Y50946D01*
X82261Y49079D01*
X82261Y47057D01*
X81487Y45190D01*
X80058Y43761D01*
X78191Y42987D01*
X76169Y42987D01*
X74302Y43761D01*
X73161Y44902D01*
X73083Y44962D01*
X73011Y45030D01*
X72958Y45059D01*
X72910Y45096D01*
X72819Y45136D01*
X72732Y45184D01*
X72674Y45199D01*
X72618Y45223D01*
X72520Y45238D01*
X72424Y45263D01*
X72324Y45269D01*
X72304Y45273D01*
X72292Y45271D01*
X72264Y45273D01*
X65857Y45273D01*
X63848Y47282D01*
X58570Y52560D01*
X58515Y52603D01*
X58466Y52653D01*
X58390Y52700D01*
X58318Y52755D01*
X58254Y52783D01*
X58195Y52819D01*
X58109Y52846D01*
X58027Y52881D01*
X57958Y52892D01*
X57891Y52913D01*
X57801Y52917D01*
X57713Y52931D01*
X57643Y52925D01*
X57573Y52928D01*
X57486Y52910D01*
X57396Y52901D01*
X57330Y52878D01*
X57262Y52864D01*
X57181Y52824D01*
X57097Y52794D01*
X57039Y52755D01*
X56976Y52724D01*
X56908Y52666D01*
X56834Y52615D01*
X56787Y52563D01*
X56734Y52518D01*
X56683Y52444D01*
X56623Y52377D01*
X56591Y52315D01*
X56551Y52258D01*
X56519Y52174D01*
X56478Y52094D01*
X56463Y52025D01*
X56438Y51960D01*
X56428Y51871D01*
X56409Y51783D01*
X56411Y51713D01*
X56403Y51644D01*
X56416Y51555D01*
X56418Y51465D01*
X56438Y51398D01*
X56448Y51329D01*
X56500Y51177D01*
X57369Y49079D01*
X57369Y47057D01*
X56595Y45190D01*
X55166Y43761D01*
X53299Y42987D01*
X51277Y42987D01*
X49410Y43761D01*
X47981Y45190D01*
X47207Y47057D01*
X47207Y49079D01*
X47981Y50946D01*
X48514Y51479D01*
X48587Y51573D01*
X48665Y51662D01*
X48684Y51698D01*
X48709Y51730D01*
X48756Y51839D01*
X48810Y51945D01*
X48819Y51985D01*
X48835Y52022D01*
X48854Y52140D01*
X48880Y52256D01*
X48879Y52296D01*
X48885Y52336D01*
X48874Y52455D01*
X48870Y52574D01*
X48859Y52613D01*
X48855Y52653D01*
X48815Y52765D01*
X48782Y52879D01*
X48761Y52914D01*
X48747Y52952D01*
X48681Y53050D01*
X48620Y53153D01*
X48580Y53198D01*
X48569Y53215D01*
X48554Y53229D01*
X48514Y53274D01*
X41601Y60186D01*
X41492Y60271D01*
X41385Y60360D01*
X41366Y60369D01*
X41350Y60381D01*
X41222Y60437D01*
X41097Y60496D01*
X41077Y60499D01*
X41058Y60507D01*
X40920Y60529D01*
X40784Y60555D01*
X40764Y60554D01*
X40744Y60557D01*
X40605Y60544D01*
X40467Y60536D01*
X40448Y60529D01*
X40428Y60528D01*
X40296Y60480D01*
X40165Y60438D01*
X40147Y60427D01*
X40128Y60420D01*
X40013Y60342D01*
X39896Y60267D01*
X39882Y60253D01*
X39865Y60241D01*
X39773Y60137D01*
X39678Y60036D01*
X39668Y60018D01*
X39655Y60003D01*
X39591Y59879D01*
X39524Y59757D01*
X39519Y59738D01*
X39510Y59720D01*
X39480Y59584D01*
X39445Y59449D01*
X39443Y59421D01*
X39440Y59409D01*
X39441Y59389D01*
X39435Y59289D01*
X39435Y55514D01*
X36696Y52775D01*
X32824Y52775D01*
X30714Y54885D01*
X30647Y54937D01*
X30587Y54996D01*
X30522Y55034D01*
X30463Y55080D01*
X30385Y55113D01*
X30312Y55156D01*
X30240Y55176D01*
X30171Y55206D01*
X30088Y55219D01*
X30006Y55242D01*
X29931Y55244D01*
X29857Y55256D01*
X29773Y55248D01*
X29688Y55250D01*
X29615Y55233D01*
X29540Y55226D01*
X29461Y55198D01*
X29379Y55179D01*
X29312Y55144D01*
X29241Y55119D01*
X29171Y55071D01*
X29096Y55032D01*
X29040Y54982D01*
X28978Y54940D01*
X28922Y54877D01*
X28859Y54820D01*
X28773Y54709D01*
X28767Y54702D01*
X28766Y54698D01*
X28761Y54692D01*
X28031Y53600D01*
X26871Y52439D01*
X25506Y51527D01*
X23990Y50899D01*
X23184Y50739D01*
X23184Y63076D01*
X29891Y63076D01*
X29891Y62256D01*
X29908Y62118D01*
X29921Y61980D01*
X29928Y61961D01*
X29931Y61940D01*
X29982Y61811D01*
X30029Y61680D01*
X30040Y61664D01*
X30048Y61645D01*
X30129Y61533D01*
X30207Y61417D01*
X30223Y61404D01*
X30234Y61387D01*
X30342Y61299D01*
X30446Y61207D01*
X30464Y61198D01*
X30479Y61185D01*
X30605Y61125D01*
X30729Y61062D01*
X30749Y61058D01*
X30767Y61049D01*
X30904Y61023D01*
X31039Y60993D01*
X31060Y60993D01*
X31079Y60989D01*
X31218Y60998D01*
X31357Y61002D01*
X31377Y61008D01*
X31397Y61009D01*
X31529Y61052D01*
X31663Y61091D01*
X31680Y61101D01*
X31699Y61107D01*
X31817Y61182D01*
X31937Y61252D01*
X31958Y61271D01*
X31968Y61277D01*
X31982Y61292D01*
X32057Y61359D01*
X32824Y62125D01*
X36599Y62125D01*
X36736Y62142D01*
X36875Y62155D01*
X36894Y62162D01*
X36914Y62165D01*
X37043Y62216D01*
X37174Y62263D01*
X37191Y62274D01*
X37210Y62282D01*
X37322Y62363D01*
X37437Y62441D01*
X37451Y62457D01*
X37467Y62468D01*
X37556Y62576D01*
X37648Y62680D01*
X37657Y62698D01*
X37670Y62713D01*
X37729Y62839D01*
X37793Y62963D01*
X37797Y62983D01*
X37806Y63001D01*
X37832Y63137D01*
X37862Y63273D01*
X37862Y63294D01*
X37865Y63313D01*
X37857Y63452D01*
X37853Y63591D01*
X37847Y63611D01*
X37846Y63631D01*
X37803Y63763D01*
X37764Y63897D01*
X37754Y63914D01*
X37748Y63933D01*
X37673Y64051D01*
X37603Y64171D01*
X37584Y64192D01*
X37577Y64202D01*
X37563Y64216D01*
X37496Y64291D01*
X32057Y69730D01*
X31966Y69801D01*
X31944Y69822D01*
X31932Y69829D01*
X31841Y69904D01*
X31822Y69913D01*
X31806Y69925D01*
X31678Y69981D01*
X31553Y70040D01*
X31533Y70043D01*
X31514Y70051D01*
X31376Y70073D01*
X31240Y70099D01*
X31220Y70098D01*
X31200Y70101D01*
X31061Y70088D01*
X30923Y70080D01*
X30904Y70073D01*
X30884Y70072D01*
X30752Y70024D01*
X30621Y69982D01*
X30603Y69971D01*
X30584Y69964D01*
X30469Y69886D01*
X30352Y69811D01*
X30338Y69797D01*
X30321Y69785D01*
X30229Y69681D01*
X30134Y69580D01*
X30124Y69562D01*
X30111Y69547D01*
X30047Y69423D01*
X29980Y69301D01*
X29975Y69282D01*
X29966Y69264D01*
X29936Y69128D01*
X29901Y68993D01*
X29899Y68965D01*
X29896Y68953D01*
X29897Y68933D01*
X29894Y68878D01*
X29893Y68876D01*
X29893Y68875D01*
X29891Y68833D01*
X29891Y66324D01*
X21915Y66324D01*
X21797Y66309D01*
X21678Y66302D01*
X21640Y66289D01*
X21600Y66284D01*
X21489Y66241D01*
X21376Y66204D01*
X21342Y66182D01*
X21304Y66167D01*
X21208Y66098D01*
X21107Y66034D01*
X21079Y66004D01*
X21047Y65981D01*
X20971Y65889D01*
X20889Y65802D01*
X20870Y65767D01*
X20844Y65736D01*
X20793Y65628D01*
X20736Y65524D01*
X20734Y65516D01*
X20666Y65494D01*
X20631Y65472D01*
X20594Y65457D01*
X20497Y65387D01*
X20397Y65324D01*
X20369Y65294D01*
X20336Y65270D01*
X20260Y65179D01*
X20179Y65092D01*
X20159Y65057D01*
X20134Y65025D01*
X20083Y64918D01*
X20025Y64813D01*
X20015Y64774D01*
X19998Y64738D01*
X19976Y64621D01*
X19946Y64505D01*
X19942Y64445D01*
X19938Y64425D01*
X19940Y64405D01*
X19936Y64345D01*
X19936Y50739D01*
X19130Y50899D01*
X17614Y51527D01*
X16249Y52439D01*
X15469Y53220D01*
X15381Y53288D01*
X15345Y53322D01*
X15327Y53332D01*
X15252Y53394D01*
X15233Y53402D01*
X15217Y53415D01*
X15090Y53470D01*
X14964Y53529D01*
X14944Y53533D01*
X14925Y53541D01*
X14788Y53563D01*
X14652Y53589D01*
X14631Y53588D01*
X14611Y53591D01*
X14472Y53578D01*
X14334Y53569D01*
X14315Y53563D01*
X14295Y53561D01*
X14164Y53514D01*
X14032Y53471D01*
X14015Y53461D01*
X13996Y53454D01*
X13881Y53376D01*
X13763Y53301D01*
X13749Y53286D01*
X13732Y53275D01*
X13641Y53171D01*
X13545Y53070D01*
X13535Y53052D01*
X13522Y53037D01*
X13459Y52913D01*
X13392Y52791D01*
X13386Y52772D01*
X13377Y52753D01*
X13347Y52618D01*
X13312Y52483D01*
X13310Y52455D01*
X13308Y52443D01*
X13308Y52423D01*
X13306Y52383D01*
X13304Y52376D01*
X13305Y52369D01*
X13302Y52322D01*
X13302Y51058D01*
X13314Y50960D01*
X13317Y50861D01*
X13334Y50802D01*
X13342Y50742D01*
X13378Y50650D01*
X13406Y50555D01*
X13436Y50503D01*
X13459Y50447D01*
X13517Y50367D01*
X13567Y50281D01*
X13634Y50206D01*
X13646Y50189D01*
X13655Y50181D01*
X13674Y50160D01*
X14814Y49020D01*
X15588Y47152D01*
X15588Y45131D01*
X14814Y43264D01*
X13385Y41834D01*
X11518Y41061D01*
X9496Y41061D01*
G37*
%LPD*%
%LPC*%
G36*
X95356Y239082D02*
X95356Y239082D01*
X93489Y239856D01*
X92060Y241285D01*
X91286Y243152D01*
X91286Y245174D01*
X92060Y247041D01*
X93489Y248470D01*
X95356Y249244D01*
X96970Y249244D01*
X97068Y249256D01*
X97167Y249259D01*
X97225Y249276D01*
X97285Y249284D01*
X97377Y249320D01*
X97473Y249347D01*
X97525Y249378D01*
X97581Y249401D01*
X97661Y249459D01*
X97746Y249509D01*
X97822Y249575D01*
X97838Y249587D01*
X97846Y249597D01*
X97867Y249615D01*
X101992Y253740D01*
X102052Y253818D01*
X102120Y253890D01*
X102149Y253943D01*
X102187Y253991D01*
X102226Y254082D01*
X102274Y254169D01*
X102289Y254227D01*
X102313Y254283D01*
X102328Y254381D01*
X102353Y254477D01*
X102360Y254577D01*
X102363Y254597D01*
X102362Y254609D01*
X102363Y254637D01*
X102363Y259916D01*
X116071Y273624D01*
X116102Y273663D01*
X116138Y273696D01*
X116199Y273788D01*
X116266Y273875D01*
X116286Y273921D01*
X116313Y273962D01*
X116349Y274066D01*
X116393Y274167D01*
X116400Y274216D01*
X116416Y274263D01*
X116425Y274372D01*
X116442Y274481D01*
X116438Y274530D01*
X116442Y274580D01*
X116423Y274688D01*
X116413Y274797D01*
X116396Y274844D01*
X116387Y274893D01*
X116342Y274993D01*
X116305Y275097D01*
X116277Y275138D01*
X116257Y275183D01*
X116188Y275269D01*
X116126Y275360D01*
X116089Y275393D01*
X116058Y275432D01*
X115970Y275498D01*
X115888Y275570D01*
X115844Y275593D01*
X115804Y275623D01*
X115659Y275694D01*
X113682Y276513D01*
X112253Y277942D01*
X111479Y279809D01*
X111479Y281831D01*
X112253Y283698D01*
X113394Y284839D01*
X113454Y284917D01*
X113522Y284989D01*
X113551Y285042D01*
X113588Y285090D01*
X113628Y285181D01*
X113676Y285268D01*
X113691Y285326D01*
X113715Y285382D01*
X113730Y285480D01*
X113755Y285576D01*
X113761Y285676D01*
X113765Y285696D01*
X113763Y285708D01*
X113765Y285736D01*
X113765Y292352D01*
X113762Y292381D01*
X113764Y292410D01*
X113742Y292539D01*
X113725Y292667D01*
X113715Y292695D01*
X113710Y292724D01*
X113656Y292842D01*
X113608Y292963D01*
X113591Y292987D01*
X113579Y293014D01*
X113498Y293115D01*
X113422Y293220D01*
X113399Y293239D01*
X113380Y293262D01*
X113277Y293340D01*
X113177Y293423D01*
X113150Y293436D01*
X113126Y293453D01*
X112982Y293524D01*
X112538Y293708D01*
X111108Y295138D01*
X110335Y297005D01*
X110335Y298618D01*
X110322Y298716D01*
X110319Y298815D01*
X110303Y298874D01*
X110295Y298934D01*
X110258Y299026D01*
X110231Y299121D01*
X110200Y299173D01*
X110178Y299229D01*
X110120Y299309D01*
X110069Y299395D01*
X110003Y299470D01*
X109991Y299487D01*
X109982Y299494D01*
X109963Y299516D01*
X107665Y301813D01*
X107665Y315384D01*
X107653Y315482D01*
X107650Y315581D01*
X107633Y315639D01*
X107625Y315699D01*
X107589Y315791D01*
X107561Y315886D01*
X107531Y315939D01*
X107508Y315995D01*
X107450Y316075D01*
X107400Y316160D01*
X107334Y316236D01*
X107322Y316252D01*
X107312Y316260D01*
X107294Y316281D01*
X106173Y317402D01*
X105399Y319269D01*
X105399Y321291D01*
X106173Y323158D01*
X107602Y324587D01*
X109469Y325361D01*
X111491Y325361D01*
X113358Y324587D01*
X114787Y323158D01*
X115561Y321291D01*
X115561Y319269D01*
X114787Y317402D01*
X113626Y316241D01*
X113566Y316163D01*
X113498Y316091D01*
X113469Y316038D01*
X113432Y315990D01*
X113392Y315899D01*
X113344Y315812D01*
X113329Y315754D01*
X113305Y315698D01*
X113290Y315600D01*
X113265Y315504D01*
X113259Y315404D01*
X113255Y315384D01*
X113257Y315372D01*
X113255Y315344D01*
X113255Y304654D01*
X113267Y304556D01*
X113270Y304457D01*
X113287Y304399D01*
X113295Y304339D01*
X113331Y304247D01*
X113359Y304152D01*
X113389Y304099D01*
X113412Y304043D01*
X113470Y303963D01*
X113520Y303878D01*
X113586Y303802D01*
X113598Y303786D01*
X113608Y303778D01*
X113626Y303757D01*
X113915Y303468D01*
X113994Y303407D01*
X114066Y303339D01*
X114119Y303310D01*
X114167Y303273D01*
X114258Y303234D01*
X114344Y303186D01*
X114403Y303171D01*
X114458Y303147D01*
X114556Y303131D01*
X114652Y303106D01*
X114752Y303100D01*
X114773Y303097D01*
X114785Y303098D01*
X114813Y303096D01*
X116426Y303096D01*
X117500Y302651D01*
X117509Y302649D01*
X117517Y302644D01*
X117662Y302607D01*
X117807Y302567D01*
X117816Y302567D01*
X117825Y302565D01*
X117986Y302555D01*
X124538Y302555D01*
X127826Y299266D01*
X127904Y299206D01*
X127976Y299138D01*
X128029Y299109D01*
X128077Y299072D01*
X128168Y299032D01*
X128255Y298984D01*
X128313Y298969D01*
X128369Y298945D01*
X128467Y298930D01*
X128563Y298905D01*
X128663Y298899D01*
X128683Y298895D01*
X128695Y298897D01*
X128723Y298895D01*
X143246Y298895D01*
X143364Y298910D01*
X143483Y298917D01*
X143521Y298930D01*
X143562Y298935D01*
X143672Y298978D01*
X143785Y299015D01*
X143820Y299037D01*
X143857Y299052D01*
X143953Y299121D01*
X144054Y299185D01*
X144082Y299215D01*
X144115Y299238D01*
X144191Y299330D01*
X144272Y299417D01*
X144292Y299452D01*
X144317Y299483D01*
X144368Y299591D01*
X144426Y299695D01*
X144436Y299735D01*
X144453Y299771D01*
X144475Y299888D01*
X144505Y300003D01*
X144509Y300063D01*
X144513Y300083D01*
X144511Y300104D01*
X144515Y300164D01*
X144515Y314856D01*
X144503Y314954D01*
X144500Y315053D01*
X144483Y315111D01*
X144475Y315171D01*
X144439Y315263D01*
X144411Y315358D01*
X144381Y315411D01*
X144358Y315467D01*
X144300Y315547D01*
X144250Y315632D01*
X144184Y315708D01*
X144172Y315724D01*
X144162Y315732D01*
X144144Y315753D01*
X143003Y316894D01*
X142229Y318761D01*
X142229Y320783D01*
X143003Y322650D01*
X144432Y324079D01*
X146299Y324853D01*
X148321Y324853D01*
X150188Y324079D01*
X151617Y322650D01*
X152391Y320783D01*
X152391Y318761D01*
X151617Y316894D01*
X150476Y315753D01*
X150416Y315675D01*
X150348Y315603D01*
X150319Y315550D01*
X150282Y315502D01*
X150242Y315411D01*
X150194Y315324D01*
X150179Y315266D01*
X150155Y315210D01*
X150140Y315112D01*
X150115Y315016D01*
X150109Y314916D01*
X150105Y314896D01*
X150107Y314884D01*
X150105Y314856D01*
X150105Y300164D01*
X150120Y300046D01*
X150127Y299927D01*
X150140Y299889D01*
X150145Y299848D01*
X150188Y299738D01*
X150225Y299625D01*
X150247Y299590D01*
X150262Y299553D01*
X150331Y299457D01*
X150395Y299356D01*
X150425Y299328D01*
X150448Y299295D01*
X150540Y299219D01*
X150627Y299138D01*
X150662Y299118D01*
X150693Y299093D01*
X150801Y299042D01*
X150905Y298984D01*
X150945Y298974D01*
X150981Y298957D01*
X151098Y298935D01*
X151213Y298905D01*
X151273Y298901D01*
X151293Y298897D01*
X151314Y298899D01*
X151374Y298895D01*
X170696Y298895D01*
X170794Y298907D01*
X170893Y298910D01*
X170951Y298927D01*
X171011Y298935D01*
X171103Y298971D01*
X171199Y298999D01*
X171251Y299029D01*
X171307Y299052D01*
X171387Y299110D01*
X171473Y299160D01*
X171548Y299226D01*
X171564Y299238D01*
X171572Y299248D01*
X171593Y299266D01*
X172734Y300407D01*
X174601Y301181D01*
X176623Y301181D01*
X178490Y300407D01*
X179919Y298978D01*
X180693Y297111D01*
X180693Y295089D01*
X179919Y293222D01*
X178490Y291793D01*
X176623Y291019D01*
X174601Y291019D01*
X172734Y291793D01*
X171593Y292934D01*
X171515Y292994D01*
X171443Y293062D01*
X171390Y293091D01*
X171342Y293128D01*
X171251Y293168D01*
X171165Y293216D01*
X171106Y293231D01*
X171050Y293255D01*
X170952Y293270D01*
X170857Y293295D01*
X170757Y293301D01*
X170736Y293305D01*
X170724Y293303D01*
X170696Y293305D01*
X125882Y293305D01*
X122594Y296594D01*
X122516Y296654D01*
X122444Y296722D01*
X122391Y296751D01*
X122343Y296788D01*
X122252Y296828D01*
X122165Y296876D01*
X122107Y296891D01*
X122051Y296915D01*
X121953Y296930D01*
X121857Y296955D01*
X121757Y296961D01*
X121737Y296965D01*
X121725Y296963D01*
X121697Y296965D01*
X121328Y296965D01*
X121299Y296962D01*
X121269Y296964D01*
X121141Y296942D01*
X121012Y296925D01*
X120985Y296915D01*
X120956Y296910D01*
X120837Y296856D01*
X120717Y296808D01*
X120693Y296791D01*
X120666Y296779D01*
X120564Y296698D01*
X120459Y296622D01*
X120441Y296599D01*
X120417Y296580D01*
X120339Y296477D01*
X120257Y296377D01*
X120244Y296350D01*
X120226Y296326D01*
X120155Y296182D01*
X119722Y295135D01*
X119666Y295063D01*
X119598Y294991D01*
X119569Y294938D01*
X119532Y294890D01*
X119492Y294799D01*
X119444Y294712D01*
X119429Y294654D01*
X119405Y294598D01*
X119390Y294500D01*
X119365Y294404D01*
X119359Y294304D01*
X119355Y294284D01*
X119357Y294272D01*
X119355Y294244D01*
X119355Y285736D01*
X119367Y285638D01*
X119370Y285539D01*
X119387Y285481D01*
X119395Y285421D01*
X119431Y285329D01*
X119459Y285234D01*
X119489Y285181D01*
X119512Y285125D01*
X119570Y285045D01*
X119620Y284960D01*
X119686Y284884D01*
X119698Y284868D01*
X119708Y284860D01*
X119726Y284839D01*
X120867Y283698D01*
X121641Y281831D01*
X121641Y280217D01*
X121653Y280119D01*
X121656Y280020D01*
X121673Y279962D01*
X121681Y279902D01*
X121717Y279810D01*
X121745Y279715D01*
X121775Y279662D01*
X121798Y279606D01*
X121856Y279526D01*
X121906Y279441D01*
X121972Y279365D01*
X121984Y279349D01*
X121994Y279341D01*
X122012Y279320D01*
X123120Y278213D01*
X123198Y278152D01*
X123270Y278084D01*
X123323Y278055D01*
X123371Y278018D01*
X123462Y277978D01*
X123549Y277931D01*
X123607Y277915D01*
X123663Y277891D01*
X123761Y277876D01*
X123856Y277851D01*
X123957Y277845D01*
X123977Y277842D01*
X123989Y277843D01*
X124017Y277841D01*
X159277Y277841D01*
X164098Y273020D01*
X164176Y272960D01*
X164248Y272892D01*
X164301Y272863D01*
X164349Y272826D01*
X164440Y272786D01*
X164527Y272738D01*
X164585Y272723D01*
X164641Y272699D01*
X164739Y272684D01*
X164835Y272659D01*
X164935Y272653D01*
X164955Y272649D01*
X164967Y272651D01*
X164995Y272649D01*
X166609Y272649D01*
X168476Y271875D01*
X169905Y270446D01*
X170679Y268579D01*
X170679Y266557D01*
X169905Y264690D01*
X168476Y263261D01*
X166609Y262487D01*
X164587Y262487D01*
X162720Y263261D01*
X161291Y264690D01*
X160517Y266557D01*
X160517Y268171D01*
X160505Y268269D01*
X160502Y268368D01*
X160485Y268426D01*
X160477Y268486D01*
X160441Y268578D01*
X160413Y268673D01*
X160383Y268726D01*
X160360Y268782D01*
X160302Y268862D01*
X160252Y268947D01*
X160186Y269023D01*
X160174Y269039D01*
X160164Y269047D01*
X160146Y269068D01*
X157334Y271880D01*
X157256Y271940D01*
X157184Y272008D01*
X157131Y272037D01*
X157083Y272075D01*
X156992Y272114D01*
X156905Y272162D01*
X156847Y272177D01*
X156791Y272201D01*
X156693Y272217D01*
X156597Y272241D01*
X156497Y272248D01*
X156477Y272251D01*
X156464Y272250D01*
X156436Y272251D01*
X123130Y272251D01*
X123031Y272239D01*
X122932Y272236D01*
X122874Y272219D01*
X122814Y272212D01*
X122722Y272175D01*
X122627Y272148D01*
X122575Y272117D01*
X122518Y272095D01*
X122438Y272036D01*
X122353Y271986D01*
X122277Y271920D01*
X122261Y271908D01*
X122253Y271898D01*
X122232Y271880D01*
X108325Y257972D01*
X108264Y257894D01*
X108196Y257822D01*
X108167Y257769D01*
X108130Y257721D01*
X108090Y257630D01*
X108043Y257543D01*
X108027Y257485D01*
X108003Y257429D01*
X107988Y257331D01*
X107963Y257235D01*
X107957Y257135D01*
X107953Y257115D01*
X107955Y257103D01*
X107953Y257075D01*
X107953Y251796D01*
X101820Y245663D01*
X101759Y245585D01*
X101691Y245513D01*
X101662Y245460D01*
X101625Y245412D01*
X101585Y245321D01*
X101538Y245234D01*
X101522Y245176D01*
X101498Y245120D01*
X101483Y245022D01*
X101458Y244926D01*
X101452Y244826D01*
X101448Y244806D01*
X101450Y244794D01*
X101448Y244766D01*
X101448Y243152D01*
X100674Y241285D01*
X99245Y239856D01*
X97378Y239082D01*
X95356Y239082D01*
G37*
%LPD*%
%LPC*%
G36*
X144749Y39939D02*
X144749Y39939D01*
X142882Y40713D01*
X141453Y42142D01*
X140679Y44009D01*
X140679Y46031D01*
X141453Y47898D01*
X142757Y49202D01*
X142830Y49297D01*
X142909Y49386D01*
X142927Y49422D01*
X142952Y49454D01*
X142999Y49563D01*
X143054Y49669D01*
X143062Y49708D01*
X143079Y49746D01*
X143097Y49863D01*
X143123Y49979D01*
X143122Y50020D01*
X143128Y50060D01*
X143117Y50178D01*
X143114Y50297D01*
X143102Y50336D01*
X143099Y50376D01*
X143058Y50489D01*
X143025Y50603D01*
X143005Y50637D01*
X142991Y50676D01*
X142924Y50774D01*
X142864Y50877D01*
X142824Y50922D01*
X142812Y50939D01*
X142797Y50952D01*
X142757Y50997D01*
X141453Y52302D01*
X140679Y54169D01*
X140679Y56191D01*
X141453Y58058D01*
X142757Y59363D01*
X142830Y59457D01*
X142909Y59546D01*
X142927Y59582D01*
X142952Y59614D01*
X143000Y59723D01*
X143054Y59829D01*
X143062Y59868D01*
X143079Y59906D01*
X143097Y60023D01*
X143123Y60139D01*
X143122Y60180D01*
X143128Y60220D01*
X143117Y60338D01*
X143114Y60457D01*
X143102Y60496D01*
X143099Y60536D01*
X143058Y60648D01*
X143025Y60763D01*
X143005Y60798D01*
X142991Y60836D01*
X142924Y60934D01*
X142864Y61037D01*
X142824Y61082D01*
X142812Y61099D01*
X142797Y61112D01*
X142757Y61158D01*
X141453Y62462D01*
X140679Y64329D01*
X140679Y66351D01*
X141453Y68218D01*
X142882Y69647D01*
X144823Y70451D01*
X144831Y70456D01*
X144840Y70459D01*
X144969Y70535D01*
X145100Y70609D01*
X145106Y70615D01*
X145114Y70620D01*
X145235Y70727D01*
X167994Y93485D01*
X168054Y93563D01*
X168122Y93635D01*
X168151Y93688D01*
X168188Y93736D01*
X168228Y93827D01*
X168276Y93914D01*
X168291Y93972D01*
X168315Y94028D01*
X168330Y94126D01*
X168355Y94222D01*
X168361Y94322D01*
X168365Y94342D01*
X168363Y94354D01*
X168365Y94382D01*
X168365Y107159D01*
X168376Y107170D01*
X168405Y107223D01*
X168442Y107271D01*
X168482Y107362D01*
X168530Y107449D01*
X168545Y107507D01*
X168569Y107563D01*
X168584Y107661D01*
X168609Y107757D01*
X168615Y107857D01*
X168619Y107877D01*
X168617Y107889D01*
X168619Y107917D01*
X168619Y109531D01*
X169393Y111398D01*
X170822Y112827D01*
X172689Y113601D01*
X174711Y113601D01*
X176578Y112827D01*
X178007Y111398D01*
X178781Y109531D01*
X178781Y107509D01*
X178007Y105642D01*
X176578Y104213D01*
X174738Y103451D01*
X174713Y103436D01*
X174685Y103427D01*
X174575Y103358D01*
X174462Y103293D01*
X174441Y103273D01*
X174416Y103257D01*
X174327Y103162D01*
X174234Y103072D01*
X174218Y103047D01*
X174198Y103025D01*
X174135Y102911D01*
X174067Y102801D01*
X174059Y102773D01*
X174044Y102747D01*
X174012Y102621D01*
X173974Y102497D01*
X173972Y102467D01*
X173965Y102439D01*
X173955Y102278D01*
X173955Y101220D01*
X173961Y101171D01*
X173959Y101121D01*
X173981Y101014D01*
X173995Y100905D01*
X174013Y100859D01*
X174023Y100810D01*
X174071Y100711D01*
X174112Y100609D01*
X174141Y100569D01*
X174163Y100524D01*
X174234Y100440D01*
X174298Y100352D01*
X174337Y100320D01*
X174369Y100282D01*
X174459Y100219D01*
X174543Y100149D01*
X174588Y100128D01*
X174629Y100099D01*
X174732Y100060D01*
X174831Y100013D01*
X174880Y100004D01*
X174926Y99986D01*
X175036Y99974D01*
X175143Y99954D01*
X175193Y99957D01*
X175242Y99951D01*
X175351Y99966D01*
X175461Y99973D01*
X175508Y99989D01*
X175557Y99996D01*
X175710Y100048D01*
X177769Y100901D01*
X179791Y100901D01*
X181658Y100127D01*
X183087Y98698D01*
X183861Y96831D01*
X183861Y94809D01*
X183087Y92942D01*
X181658Y91513D01*
X181596Y91487D01*
X181571Y91473D01*
X181543Y91463D01*
X181433Y91394D01*
X181320Y91330D01*
X181299Y91309D01*
X181274Y91293D01*
X181185Y91199D01*
X181092Y91108D01*
X181076Y91083D01*
X181056Y91062D01*
X180993Y90948D01*
X180925Y90837D01*
X180917Y90809D01*
X180902Y90783D01*
X180870Y90658D01*
X180832Y90533D01*
X180830Y90504D01*
X180823Y90475D01*
X180813Y90315D01*
X180813Y79122D01*
X175158Y73467D01*
X171065Y73467D01*
X170967Y73455D01*
X170868Y73452D01*
X170810Y73435D01*
X170750Y73427D01*
X170658Y73391D01*
X170563Y73363D01*
X170510Y73333D01*
X170454Y73310D01*
X170374Y73252D01*
X170289Y73202D01*
X170213Y73136D01*
X170197Y73124D01*
X170189Y73114D01*
X170168Y73096D01*
X161626Y64554D01*
X161566Y64476D01*
X161498Y64404D01*
X161469Y64351D01*
X161432Y64303D01*
X161392Y64212D01*
X161344Y64125D01*
X161329Y64067D01*
X161305Y64011D01*
X161290Y63913D01*
X161265Y63817D01*
X161259Y63717D01*
X161255Y63697D01*
X161257Y63685D01*
X161255Y63657D01*
X161255Y56562D01*
X151212Y46520D01*
X151152Y46442D01*
X151084Y46370D01*
X151055Y46317D01*
X151018Y46269D01*
X150978Y46178D01*
X150930Y46091D01*
X150915Y46033D01*
X150891Y45977D01*
X150876Y45879D01*
X150851Y45783D01*
X150845Y45683D01*
X150841Y45663D01*
X150843Y45651D01*
X150841Y45623D01*
X150841Y44009D01*
X150067Y42142D01*
X148638Y40713D01*
X146771Y39939D01*
X144749Y39939D01*
G37*
%LPD*%
%LPC*%
G36*
X49821Y122699D02*
X49821Y122699D01*
X47953Y123472D01*
X46524Y124902D01*
X46186Y125719D01*
X46181Y125727D01*
X46179Y125736D01*
X46102Y125865D01*
X46028Y125995D01*
X46022Y126002D01*
X46017Y126010D01*
X45911Y126130D01*
X45047Y126994D01*
X15677Y156364D01*
X15677Y178478D01*
X62004Y224804D01*
X62064Y224882D01*
X62132Y224955D01*
X62161Y225008D01*
X62198Y225055D01*
X62238Y225146D01*
X62286Y225233D01*
X62301Y225292D01*
X62325Y225347D01*
X62340Y225445D01*
X62365Y225541D01*
X62371Y225641D01*
X62375Y225661D01*
X62373Y225674D01*
X62375Y225702D01*
X62375Y253014D01*
X62363Y253112D01*
X62360Y253211D01*
X62343Y253269D01*
X62335Y253329D01*
X62299Y253421D01*
X62271Y253516D01*
X62241Y253569D01*
X62218Y253625D01*
X62160Y253705D01*
X62110Y253790D01*
X62044Y253866D01*
X62032Y253882D01*
X62022Y253890D01*
X62004Y253911D01*
X60863Y255052D01*
X60089Y256919D01*
X60089Y258941D01*
X60863Y260808D01*
X62292Y262237D01*
X64159Y263011D01*
X66181Y263011D01*
X68048Y262237D01*
X69477Y260808D01*
X70251Y258941D01*
X70251Y256919D01*
X69477Y255052D01*
X68336Y253911D01*
X68276Y253833D01*
X68208Y253761D01*
X68179Y253708D01*
X68142Y253660D01*
X68102Y253569D01*
X68054Y253482D01*
X68039Y253424D01*
X68015Y253368D01*
X68000Y253270D01*
X67975Y253174D01*
X67969Y253074D01*
X67965Y253054D01*
X67967Y253042D01*
X67965Y253014D01*
X67965Y222861D01*
X21639Y176535D01*
X21578Y176456D01*
X21510Y176384D01*
X21481Y176331D01*
X21444Y176283D01*
X21404Y176192D01*
X21357Y176106D01*
X21341Y176047D01*
X21317Y175991D01*
X21302Y175893D01*
X21277Y175798D01*
X21271Y175698D01*
X21267Y175677D01*
X21269Y175665D01*
X21267Y175637D01*
X21267Y159205D01*
X21279Y159106D01*
X21282Y159007D01*
X21299Y158949D01*
X21307Y158889D01*
X21343Y158797D01*
X21371Y158702D01*
X21401Y158650D01*
X21424Y158593D01*
X21482Y158513D01*
X21532Y158428D01*
X21599Y158353D01*
X21611Y158336D01*
X21620Y158328D01*
X21639Y158307D01*
X47287Y132659D01*
X47310Y132641D01*
X47329Y132618D01*
X47435Y132544D01*
X47538Y132464D01*
X47565Y132452D01*
X47589Y132435D01*
X47711Y132389D01*
X47830Y132338D01*
X47859Y132333D01*
X47887Y132323D01*
X48016Y132308D01*
X48144Y132288D01*
X48173Y132291D01*
X48203Y132287D01*
X48331Y132305D01*
X48461Y132318D01*
X48488Y132328D01*
X48518Y132332D01*
X48670Y132384D01*
X49821Y132860D01*
X51842Y132860D01*
X53709Y132087D01*
X55139Y130658D01*
X55912Y128790D01*
X55912Y126769D01*
X55139Y124902D01*
X53709Y123472D01*
X51842Y122699D01*
X49821Y122699D01*
G37*
%LPD*%
%LPC*%
G36*
X49712Y109317D02*
X49712Y109317D01*
X47845Y110090D01*
X46415Y111519D01*
X45642Y113387D01*
X45642Y115408D01*
X46415Y117275D01*
X47845Y118705D01*
X49712Y119478D01*
X51733Y119478D01*
X53632Y118692D01*
X53689Y118638D01*
X53742Y118609D01*
X53790Y118572D01*
X53881Y118532D01*
X53968Y118484D01*
X54026Y118469D01*
X54082Y118445D01*
X54180Y118430D01*
X54276Y118405D01*
X54376Y118399D01*
X54396Y118395D01*
X54408Y118397D01*
X54436Y118395D01*
X78573Y118395D01*
X78671Y118407D01*
X78770Y118410D01*
X78828Y118427D01*
X78888Y118435D01*
X78981Y118471D01*
X79076Y118499D01*
X79128Y118529D01*
X79184Y118552D01*
X79264Y118610D01*
X79350Y118660D01*
X79425Y118726D01*
X79441Y118738D01*
X79449Y118748D01*
X79470Y118766D01*
X82359Y121655D01*
X82420Y121734D01*
X82488Y121806D01*
X82517Y121859D01*
X82554Y121907D01*
X82594Y121998D01*
X82641Y122084D01*
X82657Y122143D01*
X82681Y122199D01*
X82696Y122297D01*
X82721Y122392D01*
X82727Y122492D01*
X82730Y122513D01*
X82729Y122525D01*
X82731Y122553D01*
X82731Y134939D01*
X82719Y135038D01*
X82716Y135137D01*
X82699Y135195D01*
X82691Y135255D01*
X82655Y135347D01*
X82627Y135442D01*
X82597Y135494D01*
X82574Y135551D01*
X82516Y135631D01*
X82466Y135716D01*
X82399Y135791D01*
X82387Y135808D01*
X82378Y135816D01*
X82359Y135837D01*
X81219Y136978D01*
X80445Y138845D01*
X80445Y140866D01*
X81219Y142734D01*
X82648Y144163D01*
X84515Y144936D01*
X86537Y144936D01*
X88404Y144163D01*
X89833Y142734D01*
X90607Y140866D01*
X90607Y138845D01*
X89833Y136978D01*
X88692Y135837D01*
X88632Y135759D01*
X88564Y135687D01*
X88534Y135633D01*
X88497Y135586D01*
X88458Y135495D01*
X88410Y135408D01*
X88395Y135349D01*
X88371Y135294D01*
X88356Y135196D01*
X88331Y135100D01*
X88324Y135000D01*
X88321Y134980D01*
X88322Y134967D01*
X88321Y134939D01*
X88321Y119712D01*
X81414Y112805D01*
X56411Y112805D01*
X56381Y112802D01*
X56352Y112804D01*
X56224Y112782D01*
X56095Y112765D01*
X56068Y112755D01*
X56038Y112750D01*
X55920Y112696D01*
X55799Y112648D01*
X55776Y112631D01*
X55749Y112619D01*
X55647Y112538D01*
X55542Y112462D01*
X55523Y112439D01*
X55500Y112420D01*
X55422Y112317D01*
X55339Y112217D01*
X55327Y112190D01*
X55309Y112166D01*
X55238Y112022D01*
X55030Y111519D01*
X53601Y110090D01*
X51733Y109317D01*
X49712Y109317D01*
G37*
%LPD*%
%LPC*%
G36*
X45282Y180544D02*
X45282Y180544D01*
X43415Y181317D01*
X41985Y182747D01*
X41212Y184614D01*
X41212Y186635D01*
X41985Y188503D01*
X43415Y189932D01*
X45282Y190705D01*
X47303Y190705D01*
X49171Y189932D01*
X50311Y188791D01*
X50390Y188730D01*
X50462Y188663D01*
X50515Y188633D01*
X50563Y188596D01*
X50654Y188557D01*
X50740Y188509D01*
X50799Y188494D01*
X50855Y188470D01*
X50953Y188454D01*
X51048Y188430D01*
X51148Y188423D01*
X51169Y188420D01*
X51181Y188421D01*
X51209Y188419D01*
X66168Y188419D01*
X66287Y188434D01*
X66405Y188442D01*
X66444Y188454D01*
X66484Y188459D01*
X66595Y188503D01*
X66708Y188540D01*
X66742Y188561D01*
X66780Y188576D01*
X66876Y188646D01*
X66977Y188710D01*
X67004Y188739D01*
X67037Y188763D01*
X67113Y188855D01*
X67195Y188941D01*
X67214Y188977D01*
X67240Y189008D01*
X67291Y189116D01*
X67348Y189220D01*
X67358Y189259D01*
X67375Y189296D01*
X67398Y189413D01*
X67428Y189528D01*
X67431Y189588D01*
X67435Y189608D01*
X67434Y189628D01*
X67438Y189689D01*
X67438Y189994D01*
X68211Y191861D01*
X69640Y193290D01*
X71508Y194064D01*
X73529Y194064D01*
X75396Y193290D01*
X76826Y191861D01*
X77599Y189994D01*
X77599Y187972D01*
X76826Y186105D01*
X75396Y184676D01*
X73529Y183902D01*
X71916Y183902D01*
X71818Y183890D01*
X71719Y183887D01*
X71660Y183870D01*
X71600Y183862D01*
X71508Y183826D01*
X71413Y183799D01*
X71361Y183768D01*
X71305Y183745D01*
X71225Y183687D01*
X71139Y183637D01*
X71064Y183571D01*
X71047Y183559D01*
X71039Y183549D01*
X71018Y183531D01*
X70318Y182830D01*
X51209Y182830D01*
X51111Y182817D01*
X51012Y182814D01*
X50954Y182798D01*
X50893Y182790D01*
X50801Y182754D01*
X50706Y182726D01*
X50654Y182695D01*
X50598Y182673D01*
X50518Y182615D01*
X50432Y182565D01*
X50357Y182498D01*
X50340Y182486D01*
X50333Y182477D01*
X50311Y182458D01*
X49171Y181317D01*
X47303Y180544D01*
X45282Y180544D01*
G37*
%LPD*%
%LPC*%
G36*
X22678Y321325D02*
X22678Y321325D01*
X21785Y322218D01*
X21785Y336182D01*
X22678Y337075D01*
X36642Y337075D01*
X37535Y336182D01*
X37535Y322218D01*
X36642Y321325D01*
X22678Y321325D01*
G37*
%LPD*%
%LPC*%
G36*
X105530Y50899D02*
X105530Y50899D01*
X104014Y51527D01*
X102649Y52439D01*
X101489Y53599D01*
X100759Y54693D01*
X100703Y54756D01*
X100656Y54826D01*
X100600Y54876D01*
X100550Y54933D01*
X100481Y54981D01*
X100418Y55037D01*
X100351Y55071D01*
X100289Y55114D01*
X100209Y55143D01*
X100134Y55181D01*
X100061Y55198D01*
X99990Y55224D01*
X99906Y55232D01*
X99824Y55251D01*
X99749Y55249D01*
X99674Y55256D01*
X99591Y55244D01*
X99506Y55241D01*
X99434Y55220D01*
X99360Y55209D01*
X99282Y55176D01*
X99201Y55153D01*
X99136Y55115D01*
X99067Y55085D01*
X98999Y55034D01*
X98927Y54991D01*
X98821Y54898D01*
X98814Y54893D01*
X98812Y54890D01*
X98806Y54885D01*
X96696Y52775D01*
X92824Y52775D01*
X90085Y55514D01*
X90085Y59386D01*
X92824Y62125D01*
X96696Y62125D01*
X97463Y61359D01*
X97572Y61274D01*
X97679Y61185D01*
X97698Y61176D01*
X97714Y61164D01*
X97841Y61108D01*
X97967Y61049D01*
X97987Y61045D01*
X98006Y61037D01*
X98144Y61015D01*
X98280Y60989D01*
X98300Y60991D01*
X98320Y60987D01*
X98459Y61000D01*
X98597Y61009D01*
X98616Y61015D01*
X98636Y61017D01*
X98768Y61064D01*
X98899Y61107D01*
X98917Y61118D01*
X98936Y61125D01*
X99051Y61203D01*
X99168Y61277D01*
X99182Y61292D01*
X99199Y61303D01*
X99291Y61407D01*
X99386Y61509D01*
X99396Y61527D01*
X99409Y61542D01*
X99472Y61666D01*
X99540Y61787D01*
X99545Y61807D01*
X99554Y61825D01*
X99584Y61961D01*
X99619Y62095D01*
X99621Y62123D01*
X99624Y62135D01*
X99623Y62156D01*
X99629Y62256D01*
X99629Y63076D01*
X106336Y63076D01*
X106336Y50739D01*
X105530Y50899D01*
G37*
%LPD*%
%LPC*%
G36*
X23184Y28074D02*
X23184Y28074D01*
X23184Y40835D01*
X24051Y40662D01*
X25606Y40019D01*
X27004Y39084D01*
X28194Y37894D01*
X29129Y36496D01*
X29772Y34941D01*
X30101Y33291D01*
X30101Y28074D01*
X23184Y28074D01*
G37*
%LPD*%
%LPC*%
G36*
X109584Y28074D02*
X109584Y28074D01*
X109584Y40835D01*
X110451Y40662D01*
X112006Y40019D01*
X113404Y39084D01*
X114594Y37894D01*
X115529Y36496D01*
X116172Y34941D01*
X116501Y33291D01*
X116501Y28074D01*
X109584Y28074D01*
G37*
%LPD*%
%LPC*%
G36*
X109584Y24826D02*
X109584Y24826D01*
X116501Y24826D01*
X116501Y19609D01*
X116172Y17959D01*
X115529Y16404D01*
X114594Y15006D01*
X113404Y13816D01*
X112006Y12881D01*
X110451Y12238D01*
X109584Y12065D01*
X109584Y24826D01*
G37*
%LPD*%
%LPC*%
G36*
X23184Y24826D02*
X23184Y24826D01*
X30101Y24826D01*
X30101Y19609D01*
X29772Y17959D01*
X29129Y16404D01*
X28194Y15006D01*
X27004Y13816D01*
X25606Y12881D01*
X24051Y12238D01*
X23184Y12065D01*
X23184Y24826D01*
G37*
%LPD*%
%LPC*%
G36*
X13019Y28074D02*
X13019Y28074D01*
X13019Y33291D01*
X13348Y34941D01*
X13991Y36496D01*
X14926Y37894D01*
X16116Y39084D01*
X17514Y40019D01*
X19069Y40662D01*
X19936Y40835D01*
X19936Y28074D01*
X13019Y28074D01*
G37*
%LPD*%
%LPC*%
G36*
X99419Y28074D02*
X99419Y28074D01*
X99419Y33291D01*
X99748Y34941D01*
X100391Y36496D01*
X101326Y37894D01*
X102516Y39084D01*
X103914Y40019D01*
X105469Y40662D01*
X106336Y40835D01*
X106336Y28074D01*
X99419Y28074D01*
G37*
%LPD*%
%LPC*%
G36*
X105469Y12238D02*
X105469Y12238D01*
X103914Y12881D01*
X102516Y13816D01*
X101326Y15006D01*
X100391Y16404D01*
X99748Y17959D01*
X99419Y19609D01*
X99419Y24826D01*
X106336Y24826D01*
X106336Y12065D01*
X105469Y12238D01*
G37*
%LPD*%
%LPC*%
G36*
X19069Y12238D02*
X19069Y12238D01*
X17514Y12881D01*
X16116Y13816D01*
X14926Y15006D01*
X13991Y16404D01*
X13348Y17959D01*
X13019Y19609D01*
X13019Y24826D01*
X19936Y24826D01*
X19936Y12065D01*
X19069Y12238D01*
G37*
%LPD*%
%LPC*%
G36*
X109584Y63076D02*
X109584Y63076D01*
X116291Y63076D01*
X116291Y58090D01*
X115971Y56480D01*
X115343Y54964D01*
X114431Y53599D01*
X113271Y52439D01*
X111906Y51527D01*
X110390Y50899D01*
X109584Y50739D01*
X109584Y63076D01*
G37*
%LPD*%
%LPC*%
G36*
X8476Y289559D02*
X8476Y289559D01*
X7829Y289732D01*
X7639Y289842D01*
X7499Y289901D01*
X7358Y289962D01*
X7352Y289963D01*
X7346Y289966D01*
X7195Y289988D01*
X7044Y290012D01*
X7038Y290011D01*
X7031Y290012D01*
X6881Y289997D01*
X6728Y289982D01*
X6721Y289980D01*
X6715Y289979D01*
X6669Y289962D01*
X6681Y290012D01*
X6715Y290160D01*
X6715Y290167D01*
X6717Y290173D01*
X6712Y290326D01*
X6709Y290478D01*
X6707Y290485D01*
X6707Y290491D01*
X6665Y290638D01*
X6624Y290784D01*
X6620Y290793D01*
X6619Y290797D01*
X6613Y290806D01*
X6552Y290929D01*
X6442Y291119D01*
X6269Y291766D01*
X6269Y297181D01*
X13891Y297181D01*
X13891Y289559D01*
X8476Y289559D01*
G37*
%LPD*%
%LPC*%
G36*
X16429Y299719D02*
X16429Y299719D01*
X16429Y307341D01*
X21844Y307341D01*
X22491Y307168D01*
X23070Y306833D01*
X23543Y306360D01*
X23878Y305781D01*
X24051Y305134D01*
X24051Y299719D01*
X16429Y299719D01*
G37*
%LPD*%
%LPC*%
G36*
X6269Y299719D02*
X6269Y299719D01*
X6269Y305134D01*
X6442Y305781D01*
X6777Y306360D01*
X7250Y306833D01*
X7829Y307168D01*
X8476Y307341D01*
X13891Y307341D01*
X13891Y299719D01*
X6269Y299719D01*
G37*
%LPD*%
D10*
X21560Y58910D02*
X21560Y70490D01*
X107960Y70490D02*
X107960Y58910D01*
D11*
X21560Y32450D02*
X21560Y20450D01*
X107960Y20450D02*
X107960Y32450D01*
D12*
X15160Y298450D03*
X29660Y329200D03*
D13*
X145760Y65340D03*
D14*
X171160Y105980D02*
X173700Y108520D01*
X145760Y67299D02*
X145760Y65340D01*
X145760Y67299D02*
X171160Y92699D01*
X171160Y105980D01*
D13*
X173700Y108520D03*
X150840Y161860D03*
X64480Y6920D03*
X161000Y6920D03*
X181320Y6920D03*
X145405Y288530D03*
X212080Y289800D03*
X150840Y161860D03*
X119500Y57400D03*
X216400Y178900D03*
X214200Y108200D03*
X191000Y240200D03*
X7696Y35424D03*
X121700Y312300D03*
X65060Y98770D03*
X96600Y333600D03*
X82500Y296600D03*
X108700Y273500D03*
X76660Y246550D03*
X88400Y233370D03*
X151000Y233100D03*
X9957Y10889D03*
X126580Y86110D03*
X9337Y332442D03*
X181910Y333530D03*
X215530Y334380D03*
X202780Y278110D03*
X195810Y253100D03*
X174550Y236320D03*
X62968Y141894D03*
X78144Y331145D03*
X109459Y332491D03*
X145760Y55180D03*
X171160Y83120D03*
D14*
X152618Y67118D02*
X152618Y62499D01*
X145760Y55641D02*
X145760Y55180D01*
X145760Y55641D02*
X152618Y62499D01*
X168620Y83120D02*
X171160Y83120D01*
X168620Y83120D02*
X152618Y67118D01*
D13*
X155666Y202200D03*
X110959Y171261D03*
X120360Y105980D03*
D14*
X117123Y165097D02*
X110959Y171261D01*
D13*
X189900Y148880D03*
D14*
X183000Y155780D02*
X183000Y175068D01*
X183000Y155780D02*
X189900Y148880D01*
X183000Y175068D02*
X158166Y199900D01*
X158166Y199900D01*
X155866Y202200D01*
X155666Y202200D01*
D13*
X101980Y202400D03*
D14*
X155666Y202400D01*
D13*
X48712Y144152D03*
D14*
X110887Y171261D02*
X110959Y171261D01*
X110887Y171261D02*
X104898Y177250D01*
X117123Y165097D02*
X117123Y129996D01*
X31894Y172519D02*
X27848Y168473D01*
X80950Y177250D02*
X104898Y177250D01*
X76219Y172519D02*
X31894Y172519D01*
X155666Y202400D02*
X155866Y202200D01*
X101980Y202400D02*
X101880Y202500D01*
X91200Y202500D01*
X83600Y194900D02*
X83600Y179900D01*
X80950Y177250D01*
X76219Y172519D01*
X83600Y194900D02*
X91200Y202500D01*
X42828Y150036D02*
X48712Y144152D01*
X27848Y160631D02*
X27848Y168473D01*
X27848Y160631D02*
X38442Y150036D01*
X42828Y150036D01*
X109118Y121991D02*
X117123Y129996D01*
X109118Y121991D02*
X109118Y113237D01*
X116375Y105980D01*
X120360Y105980D01*
D13*
X85526Y139856D03*
X50723Y114397D03*
D14*
X51925Y115600D01*
X80256Y115600D01*
X85526Y120870D01*
X85526Y139856D01*
D13*
X89160Y103350D03*
X101015Y156540D03*
D14*
X18472Y157521D02*
X18472Y177320D01*
D13*
X50831Y127780D03*
D14*
X48214Y127780D02*
X18472Y157521D01*
X65170Y224018D02*
X65170Y257930D01*
D13*
X65170Y257930D03*
D14*
X65170Y224018D02*
X18472Y177320D01*
X48214Y127780D02*
X50831Y127780D01*
X98490Y112680D02*
X98490Y148015D01*
X98490Y112680D02*
X89160Y103350D01*
X101015Y150540D02*
X101015Y156540D01*
X101015Y150540D02*
X98490Y148015D01*
D13*
X145760Y45020D03*
X178780Y95820D03*
D14*
X158460Y57720D02*
X145760Y45020D01*
X158460Y57720D02*
X158460Y65340D01*
X174001Y76262D02*
X178018Y80279D01*
X169382Y76262D02*
X158460Y65340D01*
X169382Y76262D02*
X174001Y76262D01*
X178018Y95058D02*
X178780Y95820D01*
X178018Y95058D02*
X178018Y80279D01*
D13*
X72518Y188983D03*
X46293Y185625D03*
D14*
X69160Y185625D01*
X72518Y188983D01*
D13*
X143350Y121738D03*
D14*
X145625Y104411D02*
X134493Y93280D01*
X145625Y119464D02*
X143350Y121738D01*
X145625Y119464D02*
X145625Y104411D01*
X112651Y159678D02*
X105389Y166940D01*
D13*
X34400Y164720D03*
D14*
X112651Y159678D02*
X112651Y134341D01*
X105389Y166940D02*
X36620Y166940D01*
X34400Y164720D01*
X105054Y126744D02*
X112651Y134341D01*
X105054Y126744D02*
X105054Y96825D01*
X108599Y93280D01*
X134493Y93280D01*
D13*
X121500Y119480D03*
D14*
X128000Y125980D01*
X128000Y134370D01*
X133530Y139900D01*
X153900Y139900D01*
X160400Y133400D01*
X160400Y95302D02*
X138235Y73137D01*
X123463Y73137D01*
X45126Y79784D02*
X33530Y91380D01*
X15550Y91380D01*
X10507Y86337D01*
X10507Y46142D01*
D13*
X10507Y46142D03*
D14*
X160400Y95302D02*
X160400Y133400D01*
X116816Y79784D02*
X123463Y73137D01*
X116816Y79784D02*
X45126Y79784D01*
D13*
X133260Y108480D03*
D14*
X24809Y285956D02*
X25287Y286434D01*
X24809Y285956D02*
X24809Y231639D01*
X8940Y215770D01*
X125332Y77318D02*
X133327Y77318D01*
X125332Y77318D02*
X117800Y84850D01*
X46150Y84850D01*
X35240Y95760D01*
X8940Y100380D02*
X8940Y215770D01*
X132564Y108480D02*
X133260Y108480D01*
X132564Y108480D02*
X132256Y108788D01*
X132256Y130156D01*
X137000Y134900D01*
X151000Y134900D01*
X155700Y130200D01*
X155700Y99691D01*
X133327Y77318D01*
X13560Y95760D02*
X8940Y100380D01*
X13560Y95760D02*
X35240Y95760D01*
D13*
X25287Y286434D03*
X180972Y120468D03*
X115520Y191680D03*
D14*
X177400Y172600D02*
X177400Y124040D01*
X180972Y120468D01*
X120510Y186690D02*
X120510Y186790D01*
X120510Y186690D02*
X115520Y191680D01*
X163210Y186790D02*
X177400Y172600D01*
X163210Y186790D02*
X120510Y186790D01*
D13*
X166775Y201326D03*
X149037Y213871D03*
D14*
X156451Y213871D01*
X166775Y203547D01*
X166775Y201326D01*
D13*
X196700Y154640D03*
D14*
X152177Y225497D02*
X130837Y225497D01*
X115637Y240697D01*
X115637Y253897D01*
D13*
X115637Y253897D03*
D14*
X188390Y163350D02*
X196700Y155040D01*
X196700Y154640D01*
X188390Y163350D02*
X188390Y189284D01*
X152177Y225497D01*
D13*
X138000Y246820D03*
D14*
X146510Y246820D02*
X165320Y228010D01*
X146510Y246820D02*
X138000Y246820D01*
D13*
X198040Y163180D03*
D14*
X196220Y163180D01*
X193110Y166290D02*
X193110Y191800D01*
X193110Y166290D02*
X196220Y163180D01*
X193110Y191800D02*
X184405Y200505D01*
X184405Y216995D01*
X173390Y228010D01*
X165320Y228010D01*
D13*
X165598Y267568D03*
X175612Y296100D03*
X115416Y298016D03*
X116560Y280820D03*
D14*
X116560Y296871D01*
X115560Y297871D02*
X115560Y299671D01*
X115560Y297871D02*
X116560Y296871D01*
X115560Y297871D02*
X115416Y298016D01*
X121446Y275046D02*
X158120Y275046D01*
X165598Y267568D01*
D13*
X147310Y319772D03*
X110480Y320280D03*
D14*
X110460Y320260D01*
X110460Y302971D01*
X115416Y298016D01*
X148580Y296100D02*
X175612Y296100D01*
X148580Y296100D02*
X127040Y296100D01*
X123380Y299760D01*
X115649Y299760D01*
X115560Y299671D01*
X147310Y297370D02*
X147310Y319772D01*
X147310Y297370D02*
X148580Y296100D01*
D13*
X96367Y244163D03*
D14*
X121446Y275934D02*
X116560Y280820D01*
X121446Y275934D02*
X121446Y275046D01*
X105158Y258758D01*
X105158Y252954D01*
X96367Y244163D01*
D13*
X77180Y48068D03*
X34146Y80936D03*
D14*
X67014Y48068D01*
X77180Y48068D01*
D13*
X52288Y48068D03*
X18970Y81840D03*
D14*
X23900Y81840D02*
X52288Y53452D01*
X23900Y81840D02*
X18970Y81840D01*
X52288Y53452D02*
X52288Y48068D01*
M02*
