M48
;GenerationSoftware,Autodesk,EAGLE,9.6.2*%
;CreationDate,2022-03-11T14:09:33Z*%
FMAT,2
ICI,OFF
METRIC,TZ,000.000
T5C0.305
T4C0.500
T3C0.600
T2C0.630
T1C0.650
%
G90
M71
T1
X2156Y6470
X10796Y6470
X2156Y2645
X10796Y2645
T2
X9476Y5745
X3476Y5745
T3
X9476Y5745
T4
X2966Y32920
X1516Y29845
T5
X11950Y5740
X21640Y17890
X21420Y10820
X19100Y24020
X770Y3542
X12170Y31230
X6506Y9877
X9660Y33360
X8250Y29660
X10870Y27350
X7666Y24655
X8840Y23337
X15100Y23310
X996Y1089
X12658Y8611
X934Y33244
X18191Y33353
X21553Y33438
X20278Y27811
X19581Y25310
X17455Y23632
X6297Y14189
X7814Y33114
X10946Y33249
X14576Y5518
X17116Y8312
X15567Y20220
X11096Y17126
X12036Y10598
X18990Y14888
X10198Y20240
X4871Y14415
X8553Y13986
X5072Y11440
X8916Y10335
X10101Y15654
X5083Y12778
X6517Y25793
X14576Y4502
X17878Y9582
X7252Y18898
X4629Y18562
X14335Y12174
X3440Y16472
X12150Y11948
X1051Y4614
X13326Y10848
X2529Y28643
X18097Y12047
X11552Y19168
X16678Y20133
X14904Y21387
X19670Y15464
X11564Y25390
X13800Y24682
X14576Y6534
X16560Y26757
X17561Y29610
X11542Y29802
X11656Y28082
X14731Y31977
X11048Y32028
X9637Y24416
X7718Y4807
X3415Y8094
X19804Y16318
X1897Y8184
X17370Y10852
X15084Y16186
X6448Y692
X16100Y692
X18132Y692
X14540Y28853
X21208Y28980
X15084Y16186
X5229Y4807
M30