G04 EAGLE Gerber RS-274X export*
G75*
%MOMM*%
%FSLAX34Y34*%
%LPD*%
%IN*%
%IPPOS*%
%AMOC8*
5,1,8,0,0,1.08239X$1,22.5*%
G01*
%ADD10C,0.254000*%


D10*
X0Y6350D02*
X58Y5765D01*
X167Y5188D01*
X326Y4622D01*
X534Y4073D01*
X789Y3543D01*
X1088Y3038D01*
X1431Y2561D01*
X1814Y2115D01*
X2235Y1705D01*
X2690Y1332D01*
X3175Y1001D01*
X3687Y713D01*
X4223Y472D01*
X4777Y277D01*
X5347Y132D01*
X5927Y37D01*
X6512Y-7D01*
X7100Y0D01*
X217000Y0D01*
X217575Y80D01*
X218141Y209D01*
X218693Y387D01*
X219228Y613D01*
X219741Y885D01*
X220229Y1200D01*
X220687Y1557D01*
X221112Y1952D01*
X221502Y2382D01*
X221852Y2845D01*
X222160Y3337D01*
X222425Y3854D01*
X222643Y4392D01*
X222814Y4946D01*
X222936Y5514D01*
X223008Y6090D01*
X223029Y6670D01*
X223000Y7250D01*
X223000Y213000D01*
X203000Y233000D01*
X203000Y266000D01*
X223000Y286000D01*
X223000Y337450D01*
X222938Y337930D01*
X222834Y338402D01*
X222689Y338864D01*
X222504Y339311D01*
X222282Y339740D01*
X222022Y340149D01*
X221728Y340533D01*
X221402Y340890D01*
X221046Y341218D01*
X220663Y341513D01*
X220255Y341773D01*
X219826Y341997D01*
X219379Y342183D01*
X218918Y342329D01*
X218446Y342435D01*
X217967Y342499D01*
X217483Y342520D01*
X217000Y342500D01*
X7100Y342500D01*
X6529Y342525D01*
X5958Y342501D01*
X5392Y342426D01*
X4834Y342303D01*
X4289Y342132D01*
X3760Y341913D01*
X3253Y341650D01*
X2771Y341343D01*
X2318Y340995D01*
X1896Y340610D01*
X1510Y340189D01*
X1162Y339735D01*
X854Y339254D01*
X590Y338747D01*
X371Y338219D01*
X199Y337674D01*
X75Y337117D01*
X0Y336550D01*
X0Y290000D01*
X15000Y275000D01*
X15000Y240000D01*
X0Y225000D01*
X0Y6350D01*
X90360Y57450D02*
X90372Y57175D01*
X90408Y56903D01*
X90467Y56635D01*
X90550Y56373D01*
X90655Y56119D01*
X90782Y55875D01*
X90930Y55643D01*
X91097Y55425D01*
X91283Y55223D01*
X91485Y55037D01*
X91703Y54870D01*
X91935Y54722D01*
X92179Y54595D01*
X92433Y54490D01*
X92695Y54407D01*
X92963Y54348D01*
X93235Y54312D01*
X93510Y54300D01*
X96010Y54300D01*
X96285Y54312D01*
X96557Y54348D01*
X96825Y54407D01*
X97087Y54490D01*
X97341Y54595D01*
X97585Y54722D01*
X97817Y54870D01*
X98035Y55037D01*
X98237Y55223D01*
X98423Y55425D01*
X98590Y55643D01*
X98738Y55875D01*
X98865Y56119D01*
X98970Y56373D01*
X99053Y56635D01*
X99112Y56903D01*
X99148Y57175D01*
X99160Y57450D01*
X99148Y57725D01*
X99112Y57997D01*
X99053Y58265D01*
X98970Y58527D01*
X98865Y58781D01*
X98738Y59025D01*
X98590Y59257D01*
X98423Y59475D01*
X98237Y59677D01*
X98035Y59863D01*
X97817Y60030D01*
X97585Y60178D01*
X97341Y60305D01*
X97087Y60410D01*
X96825Y60493D01*
X96557Y60552D01*
X96285Y60588D01*
X96010Y60600D01*
X93510Y60600D01*
X93235Y60588D01*
X92963Y60552D01*
X92695Y60493D01*
X92433Y60410D01*
X92179Y60305D01*
X91935Y60178D01*
X91703Y60030D01*
X91485Y59863D01*
X91283Y59677D01*
X91097Y59475D01*
X90930Y59257D01*
X90782Y59025D01*
X90655Y58781D01*
X90550Y58527D01*
X90467Y58265D01*
X90408Y57997D01*
X90372Y57725D01*
X90360Y57450D01*
X18310Y19950D02*
X18322Y19667D01*
X18359Y19386D01*
X18421Y19109D01*
X18506Y18838D01*
X18615Y18577D01*
X18745Y18325D01*
X18898Y18086D01*
X19070Y17861D01*
X19262Y17652D01*
X19471Y17460D01*
X19696Y17288D01*
X19935Y17135D01*
X20187Y17005D01*
X20448Y16896D01*
X20719Y16811D01*
X20996Y16749D01*
X21277Y16712D01*
X21560Y16700D01*
X21843Y16712D01*
X22124Y16749D01*
X22401Y16811D01*
X22672Y16896D01*
X22934Y17005D01*
X23185Y17135D01*
X23424Y17288D01*
X23649Y17460D01*
X23858Y17652D01*
X24050Y17861D01*
X24222Y18086D01*
X24375Y18325D01*
X24506Y18577D01*
X24614Y18838D01*
X24699Y19109D01*
X24761Y19386D01*
X24798Y19667D01*
X24810Y19950D01*
X24810Y32950D01*
X24798Y33233D01*
X24761Y33514D01*
X24699Y33791D01*
X24614Y34062D01*
X24506Y34324D01*
X24375Y34575D01*
X24222Y34814D01*
X24050Y35039D01*
X23858Y35248D01*
X23649Y35440D01*
X23424Y35612D01*
X23185Y35765D01*
X22934Y35896D01*
X22672Y36004D01*
X22401Y36089D01*
X22124Y36151D01*
X21843Y36188D01*
X21560Y36200D01*
X21277Y36188D01*
X20996Y36151D01*
X20719Y36089D01*
X20448Y36004D01*
X20187Y35896D01*
X19935Y35765D01*
X19696Y35612D01*
X19471Y35440D01*
X19262Y35248D01*
X19070Y35039D01*
X18898Y34814D01*
X18745Y34575D01*
X18615Y34324D01*
X18506Y34062D01*
X18421Y33791D01*
X18359Y33514D01*
X18322Y33233D01*
X18310Y32950D01*
X18310Y19950D01*
X104710Y19950D02*
X104722Y19667D01*
X104759Y19386D01*
X104821Y19109D01*
X104906Y18838D01*
X105015Y18577D01*
X105145Y18325D01*
X105298Y18086D01*
X105470Y17861D01*
X105662Y17652D01*
X105871Y17460D01*
X106096Y17288D01*
X106335Y17135D01*
X106587Y17005D01*
X106848Y16896D01*
X107119Y16811D01*
X107396Y16749D01*
X107677Y16712D01*
X107960Y16700D01*
X108243Y16712D01*
X108524Y16749D01*
X108801Y16811D01*
X109072Y16896D01*
X109334Y17005D01*
X109585Y17135D01*
X109824Y17288D01*
X110049Y17460D01*
X110258Y17652D01*
X110450Y17861D01*
X110622Y18086D01*
X110775Y18325D01*
X110906Y18577D01*
X111014Y18838D01*
X111099Y19109D01*
X111161Y19386D01*
X111198Y19667D01*
X111210Y19950D01*
X111210Y32950D01*
X111198Y33233D01*
X111161Y33514D01*
X111099Y33791D01*
X111014Y34062D01*
X110906Y34324D01*
X110775Y34575D01*
X110622Y34814D01*
X110450Y35039D01*
X110258Y35248D01*
X110049Y35440D01*
X109824Y35612D01*
X109585Y35765D01*
X109334Y35896D01*
X109072Y36004D01*
X108801Y36089D01*
X108524Y36151D01*
X108243Y36188D01*
X107960Y36200D01*
X107677Y36188D01*
X107396Y36151D01*
X107119Y36089D01*
X106848Y36004D01*
X106587Y35896D01*
X106335Y35765D01*
X106096Y35612D01*
X105871Y35440D01*
X105662Y35248D01*
X105470Y35039D01*
X105298Y34814D01*
X105145Y34575D01*
X105015Y34324D01*
X104906Y34062D01*
X104821Y33791D01*
X104759Y33514D01*
X104722Y33233D01*
X104710Y32950D01*
X104710Y19950D01*
X18310Y59700D02*
X18322Y59417D01*
X18359Y59136D01*
X18421Y58859D01*
X18506Y58588D01*
X18615Y58327D01*
X18745Y58075D01*
X18898Y57836D01*
X19070Y57611D01*
X19262Y57402D01*
X19471Y57210D01*
X19696Y57038D01*
X19935Y56885D01*
X20187Y56755D01*
X20448Y56646D01*
X20719Y56561D01*
X20996Y56499D01*
X21277Y56462D01*
X21560Y56450D01*
X21843Y56462D01*
X22124Y56499D01*
X22401Y56561D01*
X22672Y56646D01*
X22934Y56755D01*
X23185Y56885D01*
X23424Y57038D01*
X23649Y57210D01*
X23858Y57402D01*
X24050Y57611D01*
X24222Y57836D01*
X24375Y58075D01*
X24506Y58327D01*
X24614Y58588D01*
X24699Y58859D01*
X24761Y59136D01*
X24798Y59417D01*
X24810Y59700D01*
X24810Y69700D01*
X24798Y69983D01*
X24761Y70264D01*
X24699Y70541D01*
X24614Y70812D01*
X24506Y71074D01*
X24375Y71325D01*
X24222Y71564D01*
X24050Y71789D01*
X23858Y71998D01*
X23649Y72190D01*
X23424Y72362D01*
X23185Y72515D01*
X22934Y72646D01*
X22672Y72754D01*
X22401Y72839D01*
X22124Y72901D01*
X21843Y72938D01*
X21560Y72950D01*
X21277Y72938D01*
X20996Y72901D01*
X20719Y72839D01*
X20448Y72754D01*
X20187Y72646D01*
X19935Y72515D01*
X19696Y72362D01*
X19471Y72190D01*
X19262Y71998D01*
X19070Y71789D01*
X18898Y71564D01*
X18745Y71325D01*
X18615Y71074D01*
X18506Y70812D01*
X18421Y70541D01*
X18359Y70264D01*
X18322Y69983D01*
X18310Y69700D01*
X18310Y59700D01*
X104710Y59700D02*
X104722Y59417D01*
X104759Y59136D01*
X104821Y58859D01*
X104906Y58588D01*
X105015Y58327D01*
X105145Y58075D01*
X105298Y57836D01*
X105470Y57611D01*
X105662Y57402D01*
X105871Y57210D01*
X106096Y57038D01*
X106335Y56885D01*
X106587Y56755D01*
X106848Y56646D01*
X107119Y56561D01*
X107396Y56499D01*
X107677Y56462D01*
X107960Y56450D01*
X108243Y56462D01*
X108524Y56499D01*
X108801Y56561D01*
X109072Y56646D01*
X109334Y56755D01*
X109585Y56885D01*
X109824Y57038D01*
X110049Y57210D01*
X110258Y57402D01*
X110450Y57611D01*
X110622Y57836D01*
X110775Y58075D01*
X110906Y58327D01*
X111014Y58588D01*
X111099Y58859D01*
X111161Y59136D01*
X111198Y59417D01*
X111210Y59700D01*
X111210Y69700D01*
X111198Y69983D01*
X111161Y70264D01*
X111099Y70541D01*
X111014Y70812D01*
X110906Y71074D01*
X110775Y71325D01*
X110622Y71564D01*
X110450Y71789D01*
X110258Y71998D01*
X110049Y72190D01*
X109824Y72362D01*
X109585Y72515D01*
X109334Y72646D01*
X109072Y72754D01*
X108801Y72839D01*
X108524Y72901D01*
X108243Y72938D01*
X107960Y72950D01*
X107677Y72938D01*
X107396Y72901D01*
X107119Y72839D01*
X106848Y72754D01*
X106587Y72646D01*
X106335Y72515D01*
X106096Y72362D01*
X105871Y72190D01*
X105662Y71998D01*
X105470Y71789D01*
X105298Y71564D01*
X105145Y71325D01*
X105015Y71074D01*
X104906Y70812D01*
X104821Y70541D01*
X104759Y70264D01*
X104722Y69983D01*
X104710Y69700D01*
X104710Y59700D01*
X97760Y57214D02*
X97686Y56748D01*
X97540Y56298D01*
X97326Y55878D01*
X97048Y55496D01*
X96714Y55162D01*
X96332Y54884D01*
X95912Y54670D01*
X95463Y54524D01*
X94996Y54450D01*
X94524Y54450D01*
X94058Y54524D01*
X93608Y54670D01*
X93188Y54884D01*
X92806Y55162D01*
X92472Y55496D01*
X92194Y55878D01*
X91980Y56298D01*
X91834Y56748D01*
X91760Y57214D01*
X91760Y57686D01*
X91834Y58153D01*
X91980Y58602D01*
X92194Y59022D01*
X92472Y59404D01*
X92806Y59738D01*
X93188Y60016D01*
X93608Y60230D01*
X94058Y60376D01*
X94524Y60450D01*
X94996Y60450D01*
X95463Y60376D01*
X95912Y60230D01*
X96332Y60016D01*
X96714Y59738D01*
X97048Y59404D01*
X97326Y59022D01*
X97540Y58602D01*
X97686Y58153D01*
X97760Y57686D01*
X97760Y57214D01*
X97910Y57202D02*
X97832Y56712D01*
X97679Y56241D01*
X97454Y55799D01*
X97163Y55398D01*
X96812Y55047D01*
X96411Y54756D01*
X95969Y54531D01*
X95498Y54378D01*
X95008Y54300D01*
X94512Y54300D01*
X94022Y54378D01*
X93551Y54531D01*
X93109Y54756D01*
X92708Y55047D01*
X92357Y55398D01*
X92066Y55799D01*
X91841Y56241D01*
X91688Y56712D01*
X91610Y57202D01*
X91610Y57698D01*
X91688Y58188D01*
X91841Y58659D01*
X92066Y59101D01*
X92357Y59502D01*
X92708Y59853D01*
X93109Y60144D01*
X93551Y60369D01*
X94022Y60522D01*
X94512Y60600D01*
X95008Y60600D01*
X95498Y60522D01*
X95969Y60369D01*
X96411Y60144D01*
X96812Y59853D01*
X97163Y59502D01*
X97454Y59101D01*
X97679Y58659D01*
X97832Y58188D01*
X97910Y57698D01*
X97910Y57202D01*
X37910Y57202D02*
X37832Y56712D01*
X37679Y56241D01*
X37454Y55799D01*
X37163Y55398D01*
X36812Y55047D01*
X36411Y54756D01*
X35969Y54531D01*
X35498Y54378D01*
X35008Y54300D01*
X34512Y54300D01*
X34022Y54378D01*
X33551Y54531D01*
X33109Y54756D01*
X32708Y55047D01*
X32357Y55398D01*
X32066Y55799D01*
X31841Y56241D01*
X31688Y56712D01*
X31610Y57202D01*
X31610Y57698D01*
X31688Y58188D01*
X31841Y58659D01*
X32066Y59101D01*
X32357Y59502D01*
X32708Y59853D01*
X33109Y60144D01*
X33551Y60369D01*
X34022Y60522D01*
X34512Y60600D01*
X35008Y60600D01*
X35498Y60522D01*
X35969Y60369D01*
X36411Y60144D01*
X36812Y59853D01*
X37163Y59502D01*
X37454Y59101D01*
X37679Y58659D01*
X37832Y58188D01*
X37910Y57698D01*
X37910Y57202D01*
M02*
