G04 EAGLE Gerber RS-274X export*
G75*
%MOMM*%
%FSLAX34Y34*%
%LPD*%
%INSilkscreen Bottom*%
%IPPOS*%
%AMOC8*
5,1,8,0,0,1.08239X$1,22.5*%
G01*
%ADD10C,0.101600*%


D10*
X202277Y325691D02*
X204226Y327640D01*
X208124Y327640D01*
X210073Y325691D01*
X210073Y323742D01*
X208124Y321793D01*
X204226Y321793D01*
X202277Y319844D01*
X202277Y317895D01*
X204226Y315946D01*
X208124Y315946D01*
X210073Y317895D01*
X198379Y315946D02*
X198379Y323742D01*
X192532Y323742D01*
X190583Y321793D01*
X190583Y315946D01*
X184736Y323742D02*
X180838Y323742D01*
X178889Y321793D01*
X178889Y315946D01*
X184736Y315946D01*
X186685Y317895D01*
X184736Y319844D01*
X178889Y319844D01*
X174991Y323742D02*
X174991Y312048D01*
X174991Y323742D02*
X169144Y323742D01*
X167195Y321793D01*
X167195Y317895D01*
X169144Y315946D01*
X174991Y315946D01*
X163297Y312048D02*
X163297Y323742D01*
X157450Y323742D01*
X155501Y321793D01*
X155501Y317895D01*
X157450Y315946D01*
X163297Y315946D01*
X149654Y315946D02*
X145756Y315946D01*
X149654Y315946D02*
X151603Y317895D01*
X151603Y321793D01*
X149654Y323742D01*
X145756Y323742D01*
X143807Y321793D01*
X143807Y319844D01*
X151603Y319844D01*
X139909Y315946D02*
X139909Y323742D01*
X139909Y319844D02*
X136011Y323742D01*
X134062Y323742D01*
X124317Y327640D02*
X122368Y325691D01*
X124317Y327640D02*
X128215Y327640D01*
X130164Y325691D01*
X130164Y317895D01*
X128215Y315946D01*
X124317Y315946D01*
X122368Y317895D01*
X122368Y321793D01*
X126266Y321793D01*
X118470Y315946D02*
X118470Y327640D01*
X112623Y327640D01*
X110674Y325691D01*
X110674Y321793D01*
X112623Y319844D01*
X118470Y319844D01*
X100929Y327640D02*
X98980Y325691D01*
X100929Y327640D02*
X104827Y327640D01*
X106776Y325691D01*
X106776Y323742D01*
X104827Y321793D01*
X100929Y321793D01*
X98980Y319844D01*
X98980Y317895D01*
X100929Y315946D01*
X104827Y315946D01*
X106776Y317895D01*
X210073Y308590D02*
X210073Y296896D01*
X210073Y308590D02*
X204226Y308590D01*
X202277Y306641D01*
X202277Y304692D01*
X204226Y302743D01*
X202277Y300794D01*
X202277Y298845D01*
X204226Y296896D01*
X210073Y296896D01*
X210073Y302743D02*
X204226Y302743D01*
X198379Y304692D02*
X196430Y304692D01*
X196430Y296896D01*
X198379Y296896D02*
X194481Y296896D01*
X196430Y308590D02*
X196430Y310539D01*
X190583Y304692D02*
X190583Y296896D01*
X190583Y300794D02*
X186685Y304692D01*
X184736Y304692D01*
X173042Y308590D02*
X173042Y296896D01*
X178889Y296896D01*
X180838Y298845D01*
X180838Y302743D01*
X178889Y304692D01*
X173042Y304692D01*
X157450Y308590D02*
X157450Y300794D01*
X153552Y296896D01*
X149654Y300794D01*
X149654Y308590D01*
X143807Y304692D02*
X139909Y304692D01*
X137960Y302743D01*
X137960Y296896D01*
X143807Y296896D01*
X145756Y298845D01*
X143807Y300794D01*
X137960Y300794D01*
X134062Y296896D02*
X134062Y304692D01*
X134062Y300794D02*
X130164Y304692D01*
X128215Y304692D01*
X124317Y304692D02*
X122368Y304692D01*
X122368Y296896D01*
X124317Y296896D02*
X120419Y296896D01*
X122368Y308590D02*
X122368Y310539D01*
X114572Y304692D02*
X110674Y304692D01*
X108725Y302743D01*
X108725Y296896D01*
X114572Y296896D01*
X116521Y298845D01*
X114572Y300794D01*
X108725Y300794D01*
X104827Y296896D02*
X104827Y304692D01*
X98980Y304692D01*
X97031Y302743D01*
X97031Y296896D01*
X91184Y298845D02*
X91184Y306641D01*
X91184Y298845D02*
X89235Y296896D01*
X89235Y304692D02*
X93133Y304692D01*
X73643Y304692D02*
X69745Y308590D01*
X69745Y296896D01*
X73643Y296896D02*
X65847Y296896D01*
X61949Y296896D02*
X61949Y298845D01*
X60000Y298845D01*
X60000Y296896D01*
X61949Y296896D01*
X56102Y298845D02*
X56102Y306641D01*
X54153Y308590D01*
X50255Y308590D01*
X48306Y306641D01*
X48306Y298845D01*
X50255Y296896D01*
X54153Y296896D01*
X56102Y298845D01*
X48306Y306641D01*
M02*
