G04 EAGLE Gerber RS-274X export*
G75*
%MOMM*%
%FSLAX34Y34*%
%LPD*%
%INSilkscreen Top*%
%IPPOS*%
%AMOC8*
5,1,8,0,0,1.08239X$1,22.5*%
G01*
%ADD10C,0.076200*%
%ADD11C,0.127000*%
%ADD12C,0.152400*%
%ADD13C,0.100000*%
%ADD14C,0.101600*%
%ADD15C,0.050800*%
%ADD16C,0.250000*%
%ADD17C,0.050000*%


D10*
X210640Y81150D02*
X210640Y91150D01*
X215640Y91150D01*
X215640Y81150D01*
X210640Y81150D01*
X88942Y173559D02*
X73742Y173559D01*
X73742Y181159D01*
X88942Y181159D01*
X88942Y173559D01*
X149700Y94195D02*
X149700Y84195D01*
X144700Y84195D01*
X144700Y94195D01*
X149700Y94195D01*
X192460Y118520D02*
X192460Y128520D01*
X192460Y118520D02*
X187460Y118520D01*
X187460Y128520D01*
X192460Y128520D01*
X203020Y128520D02*
X203020Y118520D01*
X198020Y118520D01*
X198020Y128520D01*
X203020Y128520D01*
X207620Y152520D02*
X207620Y167720D01*
X215220Y167720D01*
X215220Y152520D01*
X207620Y152520D01*
X138840Y94195D02*
X138840Y84195D01*
X133840Y84195D01*
X133840Y94195D01*
X138840Y94195D01*
X214180Y118620D02*
X214180Y128620D01*
X214180Y118620D02*
X209180Y118620D01*
X209180Y128620D01*
X214180Y128620D01*
X83759Y162082D02*
X73759Y162082D01*
X73759Y167082D01*
X83759Y167082D01*
X83759Y162082D01*
X88967Y147821D02*
X73767Y147821D01*
X73767Y155421D01*
X88967Y155421D01*
X88967Y147821D01*
X210280Y190680D02*
X210280Y200680D01*
X215280Y200680D01*
X215280Y190680D01*
X210280Y190680D01*
X201780Y220020D02*
X191780Y220020D01*
X201780Y220020D02*
X201780Y215020D01*
X191780Y215020D01*
X191780Y220020D01*
D11*
X189280Y177020D02*
X205280Y177020D01*
X189280Y177020D02*
X189280Y209020D01*
X205280Y209020D01*
X205280Y177020D01*
D10*
X173934Y139260D02*
X173936Y139320D01*
X173942Y139379D01*
X173952Y139439D01*
X173966Y139497D01*
X173983Y139554D01*
X174004Y139610D01*
X174029Y139665D01*
X174058Y139717D01*
X174090Y139768D01*
X174125Y139816D01*
X174163Y139863D01*
X174205Y139906D01*
X174249Y139946D01*
X174295Y139984D01*
X174344Y140018D01*
X174396Y140050D01*
X174449Y140077D01*
X174504Y140101D01*
X174560Y140122D01*
X174618Y140138D01*
X174676Y140151D01*
X174735Y140160D01*
X174795Y140165D01*
X174855Y140166D01*
X174915Y140163D01*
X174974Y140156D01*
X175033Y140145D01*
X175091Y140130D01*
X175148Y140112D01*
X175204Y140090D01*
X175258Y140064D01*
X175310Y140034D01*
X175360Y140002D01*
X175408Y139966D01*
X175454Y139927D01*
X175496Y139885D01*
X175536Y139840D01*
X175573Y139793D01*
X175607Y139743D01*
X175637Y139691D01*
X175664Y139638D01*
X175687Y139582D01*
X175706Y139526D01*
X175722Y139468D01*
X175734Y139409D01*
X175742Y139350D01*
X175746Y139290D01*
X175746Y139230D01*
X175742Y139170D01*
X175734Y139111D01*
X175722Y139052D01*
X175706Y138994D01*
X175687Y138938D01*
X175664Y138882D01*
X175637Y138829D01*
X175607Y138777D01*
X175573Y138727D01*
X175536Y138680D01*
X175496Y138635D01*
X175454Y138593D01*
X175408Y138554D01*
X175360Y138518D01*
X175310Y138486D01*
X175258Y138456D01*
X175204Y138430D01*
X175148Y138408D01*
X175091Y138390D01*
X175033Y138375D01*
X174974Y138364D01*
X174915Y138357D01*
X174855Y138354D01*
X174795Y138355D01*
X174735Y138360D01*
X174676Y138369D01*
X174618Y138382D01*
X174560Y138398D01*
X174504Y138419D01*
X174449Y138443D01*
X174396Y138470D01*
X174344Y138502D01*
X174295Y138536D01*
X174249Y138574D01*
X174205Y138614D01*
X174163Y138657D01*
X174125Y138704D01*
X174090Y138752D01*
X174058Y138803D01*
X174029Y138855D01*
X174004Y138910D01*
X173983Y138966D01*
X173966Y139023D01*
X173952Y139081D01*
X173942Y139141D01*
X173936Y139200D01*
X173934Y139260D01*
D12*
X180840Y131860D02*
X120840Y131860D01*
X180840Y131860D02*
X180840Y191860D01*
X120840Y191860D01*
X120840Y131860D01*
D11*
X101757Y90800D02*
X101759Y90879D01*
X101765Y90958D01*
X101775Y91037D01*
X101788Y91115D01*
X101806Y91192D01*
X101828Y91268D01*
X101853Y91343D01*
X101882Y91417D01*
X101914Y91489D01*
X101950Y91559D01*
X101990Y91628D01*
X102033Y91695D01*
X102079Y91759D01*
X102129Y91821D01*
X102181Y91880D01*
X102236Y91937D01*
X102294Y91991D01*
X102355Y92042D01*
X102418Y92089D01*
X102483Y92134D01*
X102551Y92175D01*
X102621Y92213D01*
X102692Y92247D01*
X102765Y92278D01*
X102839Y92305D01*
X102915Y92329D01*
X102992Y92348D01*
X103069Y92364D01*
X103148Y92376D01*
X103226Y92384D01*
X103305Y92388D01*
X103385Y92388D01*
X103464Y92384D01*
X103542Y92376D01*
X103621Y92364D01*
X103698Y92348D01*
X103775Y92329D01*
X103851Y92305D01*
X103925Y92278D01*
X103998Y92247D01*
X104069Y92213D01*
X104139Y92175D01*
X104207Y92134D01*
X104272Y92089D01*
X104335Y92042D01*
X104396Y91991D01*
X104454Y91937D01*
X104509Y91880D01*
X104561Y91821D01*
X104611Y91759D01*
X104657Y91695D01*
X104700Y91628D01*
X104740Y91559D01*
X104776Y91489D01*
X104808Y91417D01*
X104837Y91343D01*
X104862Y91268D01*
X104884Y91192D01*
X104902Y91115D01*
X104915Y91037D01*
X104925Y90958D01*
X104931Y90879D01*
X104933Y90800D01*
X104931Y90721D01*
X104925Y90642D01*
X104915Y90563D01*
X104902Y90485D01*
X104884Y90408D01*
X104862Y90332D01*
X104837Y90257D01*
X104808Y90183D01*
X104776Y90111D01*
X104740Y90041D01*
X104700Y89972D01*
X104657Y89905D01*
X104611Y89841D01*
X104561Y89779D01*
X104509Y89720D01*
X104454Y89663D01*
X104396Y89609D01*
X104335Y89558D01*
X104272Y89511D01*
X104207Y89466D01*
X104139Y89425D01*
X104069Y89387D01*
X103998Y89353D01*
X103925Y89322D01*
X103851Y89295D01*
X103775Y89271D01*
X103698Y89252D01*
X103621Y89236D01*
X103542Y89224D01*
X103464Y89216D01*
X103385Y89212D01*
X103305Y89212D01*
X103226Y89216D01*
X103148Y89224D01*
X103069Y89236D01*
X102992Y89252D01*
X102915Y89271D01*
X102839Y89295D01*
X102765Y89322D01*
X102692Y89353D01*
X102621Y89387D01*
X102551Y89425D01*
X102483Y89466D01*
X102418Y89511D01*
X102355Y89558D01*
X102294Y89609D01*
X102236Y89663D01*
X102181Y89720D01*
X102129Y89779D01*
X102079Y89841D01*
X102033Y89905D01*
X101990Y89972D01*
X101950Y90041D01*
X101914Y90111D01*
X101882Y90183D01*
X101853Y90257D01*
X101828Y90332D01*
X101806Y90408D01*
X101788Y90485D01*
X101775Y90563D01*
X101765Y90642D01*
X101759Y90721D01*
X101757Y90800D01*
X93820Y87625D02*
X93820Y119375D01*
X106520Y119375D01*
X106520Y87625D01*
X93820Y87625D01*
D10*
X103590Y314140D02*
X113590Y314140D01*
X113590Y309140D01*
X103590Y309140D01*
X103590Y314140D01*
D13*
X161755Y271230D02*
X161757Y271293D01*
X161763Y271355D01*
X161773Y271417D01*
X161786Y271479D01*
X161804Y271539D01*
X161825Y271598D01*
X161850Y271656D01*
X161879Y271712D01*
X161911Y271766D01*
X161946Y271818D01*
X161984Y271867D01*
X162026Y271915D01*
X162070Y271959D01*
X162118Y272001D01*
X162167Y272039D01*
X162219Y272074D01*
X162273Y272106D01*
X162329Y272135D01*
X162387Y272160D01*
X162446Y272181D01*
X162506Y272199D01*
X162568Y272212D01*
X162630Y272222D01*
X162692Y272228D01*
X162755Y272230D01*
X162818Y272228D01*
X162880Y272222D01*
X162942Y272212D01*
X163004Y272199D01*
X163064Y272181D01*
X163123Y272160D01*
X163181Y272135D01*
X163237Y272106D01*
X163291Y272074D01*
X163343Y272039D01*
X163392Y272001D01*
X163440Y271959D01*
X163484Y271915D01*
X163526Y271867D01*
X163564Y271818D01*
X163599Y271766D01*
X163631Y271712D01*
X163660Y271656D01*
X163685Y271598D01*
X163706Y271539D01*
X163724Y271479D01*
X163737Y271417D01*
X163747Y271355D01*
X163753Y271293D01*
X163755Y271230D01*
X163753Y271167D01*
X163747Y271105D01*
X163737Y271043D01*
X163724Y270981D01*
X163706Y270921D01*
X163685Y270862D01*
X163660Y270804D01*
X163631Y270748D01*
X163599Y270694D01*
X163564Y270642D01*
X163526Y270593D01*
X163484Y270545D01*
X163440Y270501D01*
X163392Y270459D01*
X163343Y270421D01*
X163291Y270386D01*
X163237Y270354D01*
X163181Y270325D01*
X163123Y270300D01*
X163064Y270279D01*
X163004Y270261D01*
X162942Y270248D01*
X162880Y270238D01*
X162818Y270232D01*
X162755Y270230D01*
X162692Y270232D01*
X162630Y270238D01*
X162568Y270248D01*
X162506Y270261D01*
X162446Y270279D01*
X162387Y270300D01*
X162329Y270325D01*
X162273Y270354D01*
X162219Y270386D01*
X162167Y270421D01*
X162118Y270459D01*
X162070Y270501D01*
X162026Y270545D01*
X161984Y270593D01*
X161946Y270642D01*
X161911Y270694D01*
X161879Y270748D01*
X161850Y270804D01*
X161825Y270862D01*
X161804Y270921D01*
X161786Y270981D01*
X161773Y271043D01*
X161763Y271105D01*
X161757Y271167D01*
X161755Y271230D01*
D12*
X165905Y309030D02*
X124905Y309030D01*
X124905Y268030D01*
X165905Y268030D01*
X165905Y309030D01*
D10*
X128820Y333240D02*
X118820Y333240D01*
X128820Y333240D02*
X128820Y328240D01*
X118820Y328240D01*
X118820Y333240D01*
X106590Y286030D02*
X96590Y286030D01*
X96590Y291030D01*
X106590Y291030D01*
X106590Y286030D01*
X106600Y295690D02*
X96600Y295690D01*
X96600Y300690D01*
X106600Y300690D01*
X106600Y295690D01*
X118820Y318715D02*
X128820Y318715D01*
X118820Y318715D02*
X118820Y323715D01*
X128820Y323715D01*
X128820Y318715D01*
X157060Y253660D02*
X167060Y253660D01*
X157060Y253660D02*
X157060Y258660D01*
X167060Y258660D01*
X167060Y253660D01*
X167100Y244120D02*
X157100Y244120D01*
X157100Y249120D01*
X167100Y249120D01*
X167100Y244120D01*
X173280Y245900D02*
X173280Y255900D01*
X178280Y255900D01*
X178280Y245900D01*
X173280Y245900D01*
X180410Y261900D02*
X190410Y261900D01*
X180410Y261900D02*
X180410Y266900D01*
X190410Y266900D01*
X190410Y261900D01*
X190410Y288490D02*
X180410Y288490D01*
X190410Y288490D02*
X190410Y283490D01*
X180410Y283490D01*
X180410Y288490D01*
D11*
X206380Y298390D02*
X219380Y298390D01*
X219380Y324390D01*
X179380Y324390D02*
X179380Y298390D01*
X192380Y298390D01*
X206380Y324390D02*
X219380Y324390D01*
X192380Y324390D02*
X179380Y324390D01*
X206380Y297390D02*
X219380Y297390D01*
X192380Y297390D02*
X179380Y297390D01*
X206380Y296390D02*
X219380Y296390D01*
X192380Y296390D02*
X179380Y296390D01*
X219380Y296390D02*
X219380Y298390D01*
X206380Y298390D02*
X206380Y296390D01*
X192380Y296390D02*
X192380Y298390D01*
X179380Y298390D02*
X179380Y296390D01*
D10*
X154550Y317900D02*
X154550Y337900D01*
X170550Y337900D01*
X170550Y317900D01*
X154550Y317900D01*
X165846Y321300D02*
X165848Y321369D01*
X165854Y321437D01*
X165864Y321505D01*
X165877Y321573D01*
X165895Y321639D01*
X165916Y321705D01*
X165941Y321769D01*
X165970Y321831D01*
X166002Y321892D01*
X166037Y321951D01*
X166076Y322008D01*
X166118Y322062D01*
X166163Y322114D01*
X166211Y322163D01*
X166262Y322210D01*
X166315Y322253D01*
X166370Y322294D01*
X166428Y322331D01*
X166488Y322365D01*
X166550Y322395D01*
X166613Y322422D01*
X166678Y322445D01*
X166744Y322464D01*
X166811Y322480D01*
X166879Y322492D01*
X166947Y322500D01*
X167016Y322504D01*
X167084Y322504D01*
X167153Y322500D01*
X167221Y322492D01*
X167289Y322480D01*
X167356Y322464D01*
X167422Y322445D01*
X167487Y322422D01*
X167550Y322395D01*
X167612Y322365D01*
X167672Y322331D01*
X167730Y322294D01*
X167785Y322253D01*
X167838Y322210D01*
X167889Y322163D01*
X167937Y322114D01*
X167982Y322062D01*
X168024Y322008D01*
X168063Y321951D01*
X168098Y321892D01*
X168130Y321831D01*
X168159Y321769D01*
X168184Y321705D01*
X168205Y321639D01*
X168223Y321573D01*
X168236Y321505D01*
X168246Y321437D01*
X168252Y321369D01*
X168254Y321300D01*
X168252Y321231D01*
X168246Y321163D01*
X168236Y321095D01*
X168223Y321027D01*
X168205Y320961D01*
X168184Y320895D01*
X168159Y320831D01*
X168130Y320769D01*
X168098Y320708D01*
X168063Y320649D01*
X168024Y320592D01*
X167982Y320538D01*
X167937Y320486D01*
X167889Y320437D01*
X167838Y320390D01*
X167785Y320347D01*
X167730Y320306D01*
X167672Y320269D01*
X167612Y320235D01*
X167550Y320205D01*
X167487Y320178D01*
X167422Y320155D01*
X167356Y320136D01*
X167289Y320120D01*
X167221Y320108D01*
X167153Y320100D01*
X167084Y320096D01*
X167016Y320096D01*
X166947Y320100D01*
X166879Y320108D01*
X166811Y320120D01*
X166744Y320136D01*
X166678Y320155D01*
X166613Y320178D01*
X166550Y320205D01*
X166488Y320235D01*
X166428Y320269D01*
X166370Y320306D01*
X166315Y320347D01*
X166262Y320390D01*
X166211Y320437D01*
X166163Y320486D01*
X166118Y320538D01*
X166076Y320592D01*
X166037Y320649D01*
X166002Y320708D01*
X165970Y320769D01*
X165941Y320831D01*
X165916Y320895D01*
X165895Y320961D01*
X165877Y321027D01*
X165864Y321095D01*
X165854Y321163D01*
X165848Y321231D01*
X165846Y321300D01*
X180410Y277060D02*
X190410Y277060D01*
X190410Y272060D01*
X180410Y272060D01*
X180410Y277060D01*
X189480Y101750D02*
X199480Y101750D01*
X189480Y101750D02*
X189480Y106750D01*
X199480Y106750D01*
X199480Y101750D01*
X199560Y91740D02*
X189560Y91740D01*
X189560Y96740D01*
X199560Y96740D01*
X199560Y91740D01*
X204060Y78570D02*
X194060Y78570D01*
X194060Y83570D01*
X204060Y83570D01*
X204060Y78570D01*
D11*
X17936Y260937D02*
X17936Y270462D01*
X32223Y265700D02*
X35398Y262525D01*
X32223Y265700D02*
X35398Y268875D01*
D12*
X31811Y261700D02*
X41811Y261700D01*
X31811Y261700D02*
X25811Y261700D01*
X25811Y269700D01*
X41811Y269700D02*
X41811Y261700D01*
X41811Y269700D02*
X31811Y269700D01*
X25811Y269700D01*
X31811Y269700D02*
X31811Y261700D01*
D11*
X18029Y256842D02*
X18029Y247317D01*
X32316Y252080D02*
X35491Y248905D01*
X32316Y252080D02*
X35491Y255255D01*
D12*
X31904Y248080D02*
X41904Y248080D01*
X31904Y248080D02*
X25904Y248080D01*
X25904Y256080D01*
X41904Y256080D02*
X41904Y248080D01*
X41904Y256080D02*
X31904Y256080D01*
X25904Y256080D01*
X31904Y256080D02*
X31904Y248080D01*
D10*
X99033Y136791D02*
X99033Y126791D01*
X94033Y126791D01*
X94033Y136791D01*
X99033Y136791D01*
X111145Y139181D02*
X111145Y129181D01*
X106145Y129181D01*
X106145Y139181D01*
X111145Y139181D01*
X75368Y115395D02*
X65368Y115395D01*
X65368Y120395D01*
X75368Y120395D01*
X75368Y115395D01*
X75121Y130650D02*
X65121Y130650D01*
X75121Y130650D02*
X75121Y125650D01*
X65121Y125650D01*
X65121Y130650D01*
X41608Y282355D02*
X31608Y282355D01*
X41608Y282355D02*
X41608Y277355D01*
X31608Y277355D01*
X31608Y282355D01*
X33202Y240328D02*
X43202Y240328D01*
X43202Y235328D01*
X33202Y235328D01*
X33202Y240328D01*
X74036Y106021D02*
X74036Y96021D01*
X74036Y106021D02*
X79036Y106021D01*
X79036Y96021D01*
X74036Y96021D01*
X28360Y102090D02*
X18360Y102090D01*
X18360Y107090D01*
X28360Y107090D01*
X28360Y102090D01*
X43106Y103092D02*
X53106Y103092D01*
X53106Y98092D01*
X43106Y98092D01*
X43106Y103092D01*
D13*
X32760Y76550D02*
X32762Y76613D01*
X32768Y76675D01*
X32778Y76737D01*
X32791Y76799D01*
X32809Y76859D01*
X32830Y76918D01*
X32855Y76976D01*
X32884Y77032D01*
X32916Y77086D01*
X32951Y77138D01*
X32989Y77187D01*
X33031Y77235D01*
X33075Y77279D01*
X33123Y77321D01*
X33172Y77359D01*
X33224Y77394D01*
X33278Y77426D01*
X33334Y77455D01*
X33392Y77480D01*
X33451Y77501D01*
X33511Y77519D01*
X33573Y77532D01*
X33635Y77542D01*
X33697Y77548D01*
X33760Y77550D01*
X33823Y77548D01*
X33885Y77542D01*
X33947Y77532D01*
X34009Y77519D01*
X34069Y77501D01*
X34128Y77480D01*
X34186Y77455D01*
X34242Y77426D01*
X34296Y77394D01*
X34348Y77359D01*
X34397Y77321D01*
X34445Y77279D01*
X34489Y77235D01*
X34531Y77187D01*
X34569Y77138D01*
X34604Y77086D01*
X34636Y77032D01*
X34665Y76976D01*
X34690Y76918D01*
X34711Y76859D01*
X34729Y76799D01*
X34742Y76737D01*
X34752Y76675D01*
X34758Y76613D01*
X34760Y76550D01*
X34758Y76487D01*
X34752Y76425D01*
X34742Y76363D01*
X34729Y76301D01*
X34711Y76241D01*
X34690Y76182D01*
X34665Y76124D01*
X34636Y76068D01*
X34604Y76014D01*
X34569Y75962D01*
X34531Y75913D01*
X34489Y75865D01*
X34445Y75821D01*
X34397Y75779D01*
X34348Y75741D01*
X34296Y75706D01*
X34242Y75674D01*
X34186Y75645D01*
X34128Y75620D01*
X34069Y75599D01*
X34009Y75581D01*
X33947Y75568D01*
X33885Y75558D01*
X33823Y75552D01*
X33760Y75550D01*
X33697Y75552D01*
X33635Y75558D01*
X33573Y75568D01*
X33511Y75581D01*
X33451Y75599D01*
X33392Y75620D01*
X33334Y75645D01*
X33278Y75674D01*
X33224Y75706D01*
X33172Y75741D01*
X33123Y75779D01*
X33075Y75821D01*
X33031Y75865D01*
X32989Y75913D01*
X32951Y75962D01*
X32916Y76014D01*
X32884Y76068D01*
X32855Y76124D01*
X32830Y76182D01*
X32809Y76241D01*
X32791Y76301D01*
X32778Y76363D01*
X32768Y76425D01*
X32762Y76487D01*
X32760Y76550D01*
D11*
X109460Y49400D02*
X109460Y41750D01*
X109460Y11150D02*
X109460Y6950D01*
X20060Y6950D01*
X20060Y11150D01*
X20060Y41750D02*
X20060Y49400D01*
D13*
X77500Y299900D02*
X77502Y299963D01*
X77508Y300025D01*
X77518Y300087D01*
X77531Y300149D01*
X77549Y300209D01*
X77570Y300268D01*
X77595Y300326D01*
X77624Y300382D01*
X77656Y300436D01*
X77691Y300488D01*
X77729Y300537D01*
X77771Y300585D01*
X77815Y300629D01*
X77863Y300671D01*
X77912Y300709D01*
X77964Y300744D01*
X78018Y300776D01*
X78074Y300805D01*
X78132Y300830D01*
X78191Y300851D01*
X78251Y300869D01*
X78313Y300882D01*
X78375Y300892D01*
X78437Y300898D01*
X78500Y300900D01*
X78563Y300898D01*
X78625Y300892D01*
X78687Y300882D01*
X78749Y300869D01*
X78809Y300851D01*
X78868Y300830D01*
X78926Y300805D01*
X78982Y300776D01*
X79036Y300744D01*
X79088Y300709D01*
X79137Y300671D01*
X79185Y300629D01*
X79229Y300585D01*
X79271Y300537D01*
X79309Y300488D01*
X79344Y300436D01*
X79376Y300382D01*
X79405Y300326D01*
X79430Y300268D01*
X79451Y300209D01*
X79469Y300149D01*
X79482Y300087D01*
X79492Y300025D01*
X79498Y299963D01*
X79500Y299900D01*
X79498Y299837D01*
X79492Y299775D01*
X79482Y299713D01*
X79469Y299651D01*
X79451Y299591D01*
X79430Y299532D01*
X79405Y299474D01*
X79376Y299418D01*
X79344Y299364D01*
X79309Y299312D01*
X79271Y299263D01*
X79229Y299215D01*
X79185Y299171D01*
X79137Y299129D01*
X79088Y299091D01*
X79036Y299056D01*
X78982Y299024D01*
X78926Y298995D01*
X78868Y298970D01*
X78809Y298949D01*
X78749Y298931D01*
X78687Y298918D01*
X78625Y298908D01*
X78563Y298902D01*
X78500Y298900D01*
X78437Y298902D01*
X78375Y298908D01*
X78313Y298918D01*
X78251Y298931D01*
X78191Y298949D01*
X78132Y298970D01*
X78074Y298995D01*
X78018Y299024D01*
X77964Y299056D01*
X77912Y299091D01*
X77863Y299129D01*
X77815Y299171D01*
X77771Y299215D01*
X77729Y299263D01*
X77691Y299312D01*
X77656Y299364D01*
X77624Y299418D01*
X77595Y299474D01*
X77570Y299532D01*
X77549Y299591D01*
X77531Y299651D01*
X77518Y299713D01*
X77508Y299775D01*
X77502Y299837D01*
X77500Y299900D01*
X90500Y305900D02*
X90500Y287900D01*
X89500Y286900D02*
X75500Y286900D01*
X74500Y287900D02*
X74500Y305900D01*
X75500Y306900D02*
X89500Y306900D01*
X90500Y305900D01*
X90500Y287900D02*
X89500Y286900D01*
X75500Y286900D02*
X74500Y287900D01*
X74500Y305900D02*
X75500Y306900D01*
D12*
X43560Y231690D02*
X28860Y231690D01*
X28860Y204250D02*
X43560Y204250D01*
X28860Y212750D02*
X28860Y223190D01*
X43560Y213690D02*
X43560Y212750D01*
X43560Y222250D02*
X43560Y223190D01*
X43560Y204690D02*
X43560Y204250D01*
X43560Y231250D02*
X43560Y231690D01*
X28860Y231690D02*
X28860Y231250D01*
X28860Y204690D02*
X28860Y204250D01*
D10*
X61290Y227590D02*
X61290Y242790D01*
X68890Y242790D01*
X68890Y227590D01*
X61290Y227590D01*
X37637Y199397D02*
X22437Y199397D01*
X37637Y199397D02*
X37637Y191797D01*
X22437Y191797D01*
X22437Y199397D01*
D13*
X92386Y213700D02*
X92388Y213775D01*
X92394Y213849D01*
X92404Y213923D01*
X92417Y213996D01*
X92435Y214069D01*
X92456Y214140D01*
X92481Y214211D01*
X92510Y214280D01*
X92543Y214347D01*
X92579Y214412D01*
X92618Y214476D01*
X92660Y214537D01*
X92706Y214596D01*
X92755Y214653D01*
X92807Y214706D01*
X92861Y214757D01*
X92918Y214806D01*
X92978Y214850D01*
X93040Y214892D01*
X93104Y214931D01*
X93170Y214966D01*
X93237Y214997D01*
X93307Y215025D01*
X93377Y215049D01*
X93449Y215070D01*
X93522Y215086D01*
X93595Y215099D01*
X93670Y215108D01*
X93744Y215113D01*
X93819Y215114D01*
X93893Y215111D01*
X93968Y215104D01*
X94041Y215093D01*
X94115Y215079D01*
X94187Y215060D01*
X94258Y215038D01*
X94328Y215012D01*
X94397Y214982D01*
X94463Y214949D01*
X94528Y214912D01*
X94591Y214872D01*
X94652Y214828D01*
X94710Y214782D01*
X94766Y214732D01*
X94819Y214680D01*
X94870Y214625D01*
X94917Y214567D01*
X94961Y214507D01*
X95002Y214444D01*
X95040Y214380D01*
X95074Y214314D01*
X95105Y214245D01*
X95132Y214176D01*
X95155Y214105D01*
X95174Y214033D01*
X95190Y213960D01*
X95202Y213886D01*
X95210Y213812D01*
X95214Y213737D01*
X95214Y213663D01*
X95210Y213588D01*
X95202Y213514D01*
X95190Y213440D01*
X95174Y213367D01*
X95155Y213295D01*
X95132Y213224D01*
X95105Y213155D01*
X95074Y213086D01*
X95040Y213020D01*
X95002Y212956D01*
X94961Y212893D01*
X94917Y212833D01*
X94870Y212775D01*
X94819Y212720D01*
X94766Y212668D01*
X94710Y212618D01*
X94652Y212572D01*
X94591Y212528D01*
X94528Y212488D01*
X94463Y212451D01*
X94397Y212418D01*
X94328Y212388D01*
X94258Y212362D01*
X94187Y212340D01*
X94115Y212321D01*
X94041Y212307D01*
X93968Y212296D01*
X93893Y212289D01*
X93819Y212286D01*
X93744Y212287D01*
X93670Y212292D01*
X93595Y212301D01*
X93522Y212314D01*
X93449Y212330D01*
X93377Y212351D01*
X93307Y212375D01*
X93237Y212403D01*
X93170Y212434D01*
X93104Y212469D01*
X93040Y212508D01*
X92978Y212550D01*
X92918Y212594D01*
X92861Y212643D01*
X92807Y212694D01*
X92755Y212747D01*
X92706Y212804D01*
X92660Y212863D01*
X92618Y212924D01*
X92579Y212988D01*
X92543Y213053D01*
X92510Y213120D01*
X92481Y213189D01*
X92456Y213260D01*
X92435Y213331D01*
X92417Y213404D01*
X92404Y213477D01*
X92394Y213551D01*
X92388Y213625D01*
X92386Y213700D01*
D12*
X77800Y208700D02*
X77800Y238700D01*
X101800Y238700D01*
X101800Y208700D01*
X77800Y208700D01*
D10*
X118100Y211200D02*
X118100Y221200D01*
X118100Y211200D02*
X113100Y211200D01*
X113100Y221200D01*
X118100Y221200D01*
X128590Y223220D02*
X138590Y223220D01*
X138590Y218220D01*
X128590Y218220D01*
X128590Y223220D01*
X128690Y211780D02*
X138690Y211780D01*
X138690Y206780D01*
X128690Y206780D01*
X128690Y211780D01*
X116900Y233300D02*
X116900Y243300D01*
X116900Y233300D02*
X111900Y233300D01*
X111900Y243300D01*
X116900Y243300D01*
X128090Y236750D02*
X138090Y236750D01*
X138090Y231750D01*
X128090Y231750D01*
X128090Y236750D01*
X125690Y244560D02*
X125690Y254560D01*
X130690Y254560D01*
X130690Y244560D01*
X125690Y244560D01*
D14*
X16515Y128212D02*
X16517Y128265D01*
X16523Y128317D01*
X16533Y128369D01*
X16546Y128420D01*
X16564Y128470D01*
X16585Y128519D01*
X16610Y128566D01*
X16638Y128610D01*
X16669Y128653D01*
X16704Y128693D01*
X16741Y128730D01*
X16781Y128765D01*
X16824Y128796D01*
X16869Y128824D01*
X16915Y128849D01*
X16964Y128870D01*
X17014Y128888D01*
X17065Y128901D01*
X17117Y128911D01*
X17169Y128917D01*
X17222Y128919D01*
X17275Y128917D01*
X17327Y128911D01*
X17379Y128901D01*
X17430Y128888D01*
X17480Y128870D01*
X17529Y128849D01*
X17576Y128824D01*
X17620Y128796D01*
X17663Y128765D01*
X17703Y128730D01*
X17740Y128693D01*
X17775Y128653D01*
X17806Y128610D01*
X17834Y128565D01*
X17859Y128519D01*
X17880Y128470D01*
X17898Y128420D01*
X17911Y128369D01*
X17921Y128317D01*
X17927Y128265D01*
X17929Y128212D01*
X17927Y128159D01*
X17921Y128107D01*
X17911Y128055D01*
X17898Y128004D01*
X17880Y127954D01*
X17859Y127905D01*
X17834Y127858D01*
X17806Y127814D01*
X17775Y127771D01*
X17740Y127731D01*
X17703Y127694D01*
X17663Y127659D01*
X17620Y127628D01*
X17575Y127600D01*
X17529Y127575D01*
X17480Y127554D01*
X17430Y127536D01*
X17379Y127523D01*
X17327Y127513D01*
X17275Y127507D01*
X17222Y127505D01*
X17169Y127507D01*
X17117Y127513D01*
X17065Y127523D01*
X17014Y127536D01*
X16964Y127554D01*
X16915Y127575D01*
X16868Y127600D01*
X16824Y127628D01*
X16781Y127659D01*
X16741Y127694D01*
X16704Y127731D01*
X16669Y127771D01*
X16638Y127814D01*
X16610Y127859D01*
X16585Y127905D01*
X16564Y127954D01*
X16546Y128004D01*
X16533Y128055D01*
X16523Y128107D01*
X16517Y128159D01*
X16515Y128212D01*
X11922Y139912D02*
X41922Y139912D01*
X41922Y120912D01*
X11922Y120912D02*
X11922Y139912D01*
X11922Y120912D02*
X41922Y120912D01*
X55019Y156250D02*
X55021Y156303D01*
X55027Y156355D01*
X55037Y156407D01*
X55050Y156458D01*
X55068Y156508D01*
X55089Y156557D01*
X55114Y156604D01*
X55142Y156648D01*
X55173Y156691D01*
X55208Y156731D01*
X55245Y156768D01*
X55285Y156803D01*
X55328Y156834D01*
X55373Y156862D01*
X55419Y156887D01*
X55468Y156908D01*
X55518Y156926D01*
X55569Y156939D01*
X55621Y156949D01*
X55673Y156955D01*
X55726Y156957D01*
X55779Y156955D01*
X55831Y156949D01*
X55883Y156939D01*
X55934Y156926D01*
X55984Y156908D01*
X56033Y156887D01*
X56080Y156862D01*
X56124Y156834D01*
X56167Y156803D01*
X56207Y156768D01*
X56244Y156731D01*
X56279Y156691D01*
X56310Y156648D01*
X56338Y156603D01*
X56363Y156557D01*
X56384Y156508D01*
X56402Y156458D01*
X56415Y156407D01*
X56425Y156355D01*
X56431Y156303D01*
X56433Y156250D01*
X56431Y156197D01*
X56425Y156145D01*
X56415Y156093D01*
X56402Y156042D01*
X56384Y155992D01*
X56363Y155943D01*
X56338Y155896D01*
X56310Y155852D01*
X56279Y155809D01*
X56244Y155769D01*
X56207Y155732D01*
X56167Y155697D01*
X56124Y155666D01*
X56079Y155638D01*
X56033Y155613D01*
X55984Y155592D01*
X55934Y155574D01*
X55883Y155561D01*
X55831Y155551D01*
X55779Y155545D01*
X55726Y155543D01*
X55673Y155545D01*
X55621Y155551D01*
X55569Y155561D01*
X55518Y155574D01*
X55468Y155592D01*
X55419Y155613D01*
X55372Y155638D01*
X55328Y155666D01*
X55285Y155697D01*
X55245Y155732D01*
X55208Y155769D01*
X55173Y155809D01*
X55142Y155852D01*
X55114Y155897D01*
X55089Y155943D01*
X55068Y155992D01*
X55050Y156042D01*
X55037Y156093D01*
X55027Y156145D01*
X55021Y156197D01*
X55019Y156250D01*
X44026Y150950D02*
X44026Y180950D01*
X63026Y180950D01*
X63026Y150950D02*
X44026Y150950D01*
X63026Y150950D02*
X63026Y180950D01*
D10*
X35299Y173208D02*
X25299Y173208D01*
X25299Y178208D01*
X35299Y178208D01*
X35299Y173208D01*
X27745Y162149D02*
X27745Y152149D01*
X22745Y152149D01*
X22745Y162149D01*
X27745Y162149D01*
X54030Y195130D02*
X64030Y195130D01*
X54030Y195130D02*
X54030Y200130D01*
X64030Y200130D01*
X64030Y195130D01*
D12*
X42380Y308050D02*
X42380Y322750D01*
X69820Y322750D02*
X69820Y308050D01*
X61320Y308050D02*
X50880Y308050D01*
X60380Y322750D02*
X61320Y322750D01*
X51820Y322750D02*
X50880Y322750D01*
X69380Y322750D02*
X69820Y322750D01*
X42820Y322750D02*
X42380Y322750D01*
X42380Y308050D02*
X42820Y308050D01*
X69380Y308050D02*
X69820Y308050D01*
D15*
X19206Y327100D02*
X15478Y327100D01*
X17342Y328965D02*
X17342Y325236D01*
X17143Y289500D02*
X13414Y289500D01*
D10*
X14033Y310940D02*
X29233Y310940D01*
X14033Y310940D02*
X14033Y318540D01*
X29233Y318540D01*
X29233Y310940D01*
X92700Y274500D02*
X92700Y259300D01*
X92700Y274500D02*
X100300Y274500D01*
X100300Y259300D01*
X92700Y259300D01*
D11*
X86163Y282575D02*
X76638Y282575D01*
X81400Y268288D02*
X78225Y265113D01*
X81400Y268288D02*
X84575Y265113D01*
D12*
X77400Y268700D02*
X77400Y258700D01*
X77400Y268700D02*
X77400Y274700D01*
X85400Y274700D01*
X85400Y258700D02*
X77400Y258700D01*
X85400Y258700D02*
X85400Y268700D01*
X85400Y274700D01*
X85400Y268700D02*
X77400Y268700D01*
D10*
X68500Y275500D02*
X68500Y285500D01*
X68500Y275500D02*
X63500Y275500D01*
X63500Y285500D01*
X68500Y285500D01*
X81200Y314700D02*
X91200Y314700D01*
X81200Y314700D02*
X81200Y319700D01*
X91200Y319700D01*
X91200Y314700D01*
D16*
X140420Y58160D02*
X140422Y58230D01*
X140428Y58300D01*
X140438Y58369D01*
X140451Y58438D01*
X140469Y58506D01*
X140490Y58573D01*
X140515Y58638D01*
X140544Y58702D01*
X140576Y58765D01*
X140612Y58825D01*
X140651Y58883D01*
X140693Y58939D01*
X140738Y58993D01*
X140786Y59044D01*
X140837Y59092D01*
X140891Y59137D01*
X140947Y59179D01*
X141005Y59218D01*
X141065Y59254D01*
X141128Y59286D01*
X141192Y59315D01*
X141257Y59340D01*
X141324Y59361D01*
X141392Y59379D01*
X141461Y59392D01*
X141530Y59402D01*
X141600Y59408D01*
X141670Y59410D01*
X141740Y59408D01*
X141810Y59402D01*
X141879Y59392D01*
X141948Y59379D01*
X142016Y59361D01*
X142083Y59340D01*
X142148Y59315D01*
X142212Y59286D01*
X142275Y59254D01*
X142335Y59218D01*
X142393Y59179D01*
X142449Y59137D01*
X142503Y59092D01*
X142554Y59044D01*
X142602Y58993D01*
X142647Y58939D01*
X142689Y58883D01*
X142728Y58825D01*
X142764Y58765D01*
X142796Y58702D01*
X142825Y58638D01*
X142850Y58573D01*
X142871Y58506D01*
X142889Y58438D01*
X142902Y58369D01*
X142912Y58300D01*
X142918Y58230D01*
X142920Y58160D01*
X142918Y58090D01*
X142912Y58020D01*
X142902Y57951D01*
X142889Y57882D01*
X142871Y57814D01*
X142850Y57747D01*
X142825Y57682D01*
X142796Y57618D01*
X142764Y57555D01*
X142728Y57495D01*
X142689Y57437D01*
X142647Y57381D01*
X142602Y57327D01*
X142554Y57276D01*
X142503Y57228D01*
X142449Y57183D01*
X142393Y57141D01*
X142335Y57102D01*
X142275Y57066D01*
X142212Y57034D01*
X142148Y57005D01*
X142083Y56980D01*
X142016Y56959D01*
X141948Y56941D01*
X141879Y56928D01*
X141810Y56918D01*
X141740Y56912D01*
X141670Y56910D01*
X141600Y56912D01*
X141530Y56918D01*
X141461Y56928D01*
X141392Y56941D01*
X141324Y56959D01*
X141257Y56980D01*
X141192Y57005D01*
X141128Y57034D01*
X141065Y57066D01*
X141005Y57102D01*
X140947Y57141D01*
X140891Y57183D01*
X140837Y57228D01*
X140786Y57276D01*
X140738Y57327D01*
X140693Y57381D01*
X140651Y57437D01*
X140612Y57495D01*
X140576Y57555D01*
X140544Y57618D01*
X140515Y57682D01*
X140490Y57747D01*
X140469Y57814D01*
X140451Y57882D01*
X140438Y57951D01*
X140428Y58020D01*
X140422Y58090D01*
X140420Y58160D01*
D17*
X123470Y71860D02*
X215970Y71860D01*
X215970Y5860D01*
X123470Y5860D01*
X123470Y71860D01*
D13*
X129720Y68860D02*
X209720Y68860D01*
X209720Y8860D01*
X129720Y8860D01*
X129720Y68860D01*
M02*
